<svg xmlns="http://www.w3.org/2000/svg" viewBox="0 0 458.31 277"><defs><style>.cls-1{fill:#1a1a1a;}.cls-2{fill:#fff;}</style></defs><g id="Capa_2" data-name="Capa 2"><g id="HIPSTER"><polyline class="cls-1" points="96.28 77.75 70.52 51.99 63 59.51 52.8 30.5 81.8 40.71 74.28 48.23 100.04 73.99 96.28 77.75"/><polyline class="cls-1" points="406.22 247.2 374.25 218.38 374.24 231.03 371.26 231.04 371.26 218.28 374.14 218.28 369.27 213.88 369.21 213.95 358.27 203.01 362.03 199.25 372.97 210.19 372.91 210.26 377.31 215.13 377.31 212.24 390.06 212.24 390.05 215.23 377.39 215.23 406.22 247.2"/><polyline class="cls-1" points="396.28 221.47 383.55 221.47 383.55 218.48 396.29 218.48 396.28 221.47"/><polyline class="cls-1" points="408.76 233.94 396.01 233.94 396.02 230.95 408.76 230.95 408.76 233.94"/><polyline class="cls-1" points="415 240.18 402.25 240.18 402.26 237.19 415 237.19 415 240.18"/><polyline class="cls-1" points="402.52 227.7 389.77 227.7 389.79 224.71 402.52 224.71 402.52 227.7"/><polyline class="cls-1" points="377.5 237.27 377.5 224.53 380.49 224.52 380.48 237.26 377.5 237.27"/><polyline class="cls-1" points="399.2 255.99 396.2 255.99 396.21 243.23 399.2 243.22 399.2 255.99"/><polyline class="cls-1" points="386.73 243.51 383.73 243.51 383.73 230.76 386.73 230.75 386.73 243.51"/><polyline class="cls-1" points="392.96 249.74 389.97 249.74 389.97 237 392.96 236.99 392.96 249.74"/><polyline class="cls-1" points="362.03 77.75 358.27 73.99 384.02 48.23 376.51 40.71 405.51 30.5 395.3 59.51 387.78 51.99 362.03 77.75"/><polyline class="cls-1" points="52.08 247.2 80.91 215.23 68.25 215.23 68.25 212.24 80.99 212.24 81 215.13 85.4 210.26 85.34 210.19 96.28 199.25 100.03 203 89.1 213.95 89.03 213.88 84.16 218.28 87.04 218.28 87.04 231.04 84.06 231.03 84.06 218.38 52.08 247.2"/><polyline class="cls-1" points="74.76 221.47 62.01 221.47 62.01 218.48 74.76 218.48 74.76 221.47"/><polyline class="cls-1" points="49.54 233.94 49.55 230.95 62.28 230.95 62.29 233.94 49.54 233.94"/><polyline class="cls-1" points="43.3 240.18 43.3 237.19 56.05 237.19 56.05 240.18 43.3 240.18"/><polyline class="cls-1" points="55.78 227.7 55.78 224.71 68.52 224.71 68.53 227.7 55.78 227.7"/><polyline class="cls-1" points="80.81 237.27 77.82 237.26 77.82 224.52 80.8 224.53 80.81 237.27"/><polyline class="cls-1" points="62.1 255.99 59.1 255.99 59.1 243.22 62.09 243.23 62.1 255.99"/><polyline class="cls-1" points="74.58 243.51 71.58 243.51 71.58 230.75 74.57 230.76 74.58 243.51"/><polyline class="cls-1" points="68.34 249.74 65.34 249.74 65.34 236.99 68.33 237 68.34 249.74"/><path class="cls-1" d="M299,262.32l-27.57-27.56,1.12-1.11L299,260.08,411.8,147.24l1.12,1.12L362,199.25,358.27,203,299,262.32m0-6.71L274.75,231.4l1.12-1.11L299,253.37,408.44,143.88l1.12,1.12L299,255.61m109.48-122.5L299,23.62l-23.1,23.09-1.11-1.12L299,21.39,409.56,132l-1.12,1.12m3.36-3.36L299,16.91,272.5,43.35l-1.11-1.11L299,14.68,358.27,74,362,77.75l50.89,50.88-1.12,1.12"/><path class="cls-2" d="M299,260.08l-26.45-26.43,2.24-2.25L299,255.61,409.56,145l2.24,2.24L299,260.08M409.56,132,299,21.39l-24.21,24.2-2.25-2.24L299,16.91,411.8,129.75,409.56,132"/><path class="cls-1" d="M159.35,262.32,100,203l-3.75-3.75L45.39,148.36l1.12-1.12L159.35,260.08l26.45-26.44,1.11,1.12-27.56,27.56m0-6.71L48.74,145l1.12-1.12L159.35,253.37l23.09-23.08,1.12,1.12-24.21,24.2M49.86,133.11,48.74,132,159.35,21.39l24.21,24.2-1.12,1.12L159.35,23.62,49.86,133.11m-3.35-3.36-1.12-1.11L96.28,77.75,100,74l59.31-59.31,27.56,27.56-1.11,1.11L159.35,16.91,46.51,129.75"/><path class="cls-2" d="M159.35,260.08,46.51,147.24,48.74,145,159.35,255.61l24.21-24.2,2.24,2.23-26.45,26.44M48.74,132l-2.23-2.24L159.35,16.91,185.8,43.35l-2.24,2.24-24.21-24.2L48.74,132"/><path class="cls-1" d="M229.15,277l-42.24-42.24-1.11-1.12-2.24-2.23-1.12-1.12L170.65,218.5l1.12-1.12,57.38,57.38,57.38-57.38,1.12,1.12-11.78,11.79-1.12,1.11-2.24,2.25-1.12,1.11L229.15,277m0-6.71L174,215.14l1.12-1.12,54,54,54-54,1.12,1.12-55.15,55.15M283.18,63l-54-54-54,54L174,61.85,229.15,6.71,284.3,61.85,283.18,63m3.35-3.35L229.15,2.24,171.77,59.62l-1.12-1.12,11.79-11.79,1.12-1.12,2.24-2.24,1.11-1.11L229.15,0l42.24,42.24,1.11,1.11,2.25,2.24,1.11,1.12L287.65,58.5l-1.12,1.12"/><path class="cls-2" d="M229.15,274.76l-57.38-57.38,2.24-2.24,55.14,55.15,55.15-55.15,2.23,2.24-57.38,57.38M284.3,61.85,229.15,6.71,174,61.85l-2.24-2.23L229.15,2.24l57.38,57.38-2.23,2.23"/><polyline class="cls-1" points="458.31 156.92 449.09 147.7 449.09 129.29 458.31 120.08 458.31 156.92"/><polyline class="cls-1" points="449.09 156.92 439.89 147.71 439.89 129.28 449.09 120.08 449.09 129.29 449.09 147.7 449.09 156.92"/><polyline class="cls-1" points="439.89 156.92 430.68 147.71 430.68 129.28 439.89 120.08 439.89 129.28 439.89 147.71 439.89 156.92"/><polyline class="cls-1" points="430.68 156.92 421.47 147.71 421.47 129.29 430.68 120.08 430.68 129.28 430.68 147.71 430.68 156.92"/><polyline class="cls-1" points="421.47 156.92 412.92 148.36 411.8 147.24 409.56 145 408.44 143.88 403.05 138.49 408.44 133.11 409.56 131.99 411.8 129.75 412.92 128.63 421.47 120.08 421.47 129.29 421.47 147.71 421.47 156.92"/><polyline class="cls-1" points="0 156.92 0 120.08 9.21 129.28 9.21 147.71 0 156.92"/><polyline class="cls-1" points="9.21 156.92 9.21 147.71 9.21 129.28 9.21 120.08 18.41 129.28 18.41 147.71 9.21 156.92"/><polyline class="cls-1" points="18.41 156.92 18.41 147.71 18.41 129.28 18.41 120.08 27.62 129.29 27.62 147.7 18.41 156.92"/><polyline class="cls-1" points="27.62 156.92 27.62 147.7 27.62 129.29 27.62 120.08 36.83 129.28 36.83 147.71 27.62 156.92"/><polyline class="cls-1" points="36.83 156.92 36.83 147.71 36.83 129.28 36.83 120.08 45.39 128.64 46.51 129.75 48.74 131.99 49.86 133.11 55.25 138.49 49.86 143.88 48.74 145 46.51 147.24 45.39 148.36 36.83 156.92"/><path class="cls-1" d="M159.35,229.8l-91.3-91.3,91.3-91.3,11.3,11.3,1.12,1.12L174,61.85,175.13,63l12.52,12.52L156,107.19v-1H125.54V116H135.9v11.21L124.64,138.5l11.26,11.26v21.06h9.74V159.5l42,42L175.13,214,174,215.14l-2.24,2.24-1.12,1.12-11.3,11.3m0-24.11-7.13,7.14,7.13,7.14,7.16-7.14-7.16-7.14m0-148.66-7.13,7.13,7.13,7.15,7.16-7.15L159.34,57m-13.7,60.46V116h1.48l-1.48,1.47"/><path class="cls-1" d="M229.15,243l-41.5-41.5-42-42v-42l1.48-1.47H156v-8.83l31.7-31.7L229.15,34l41.51,41.5-30.78,30.78c-.66-.06-1.34-.09-2-.09H223.27v16.7l-8.71,8.71V106.23h-9.74v64.59h9.74V145.4l8.71,8.72v16.7H240l30.69,30.68L229.15,243m0-28.73-8.05,8.05,8.05,8.06,8.06-8.06-8.06-8.05m-32.68-43.46h0l-7.22-28.2a15.09,15.09,0,0,0,5.21-11.6v-9.38q0-7-3.36-10.92-3.79-4.48-11.95-4.49H163.79v64.59h9.74V146.49H180l5.91,24.33h10.54M229.15,46.6l-8.05,8.06,8.05,8.06,8.06-8.06-8.06-8.06M135.9,149.76,124.64,138.5l11.26-11.27v22.53m43.5-12.91h-5.87V116.18h5.87c3.72,0,5.57,1.87,5.57,5.62v9.43a5.46,5.46,0,0,1-1.62,4,5.33,5.33,0,0,1-3.95,1.65"/><path class="cls-1" d="M299,229.8l-11.31-11.3-1.12-1.12-2.23-2.24L283.18,214,270.66,201.5,240,170.82h1.34a15,15,0,0,0,12.48-7.63,21.53,21.53,0,0,0,2.32-10.41,26.61,26.61,0,0,0-.36-4.49,19.17,19.17,0,0,0-2.22-6.39A11.35,11.35,0,0,0,248,137a9.83,9.83,0,0,0,3.4-2.52q3.45-3.91,3.46-10.42a22.41,22.41,0,0,0-.94-6.85,14.12,14.12,0,0,0-5.67-8,18.31,18.31,0,0,0-8.39-3l30.78-30.78L283.18,63l1.12-1.12,2.23-2.23,1.12-1.12L299,47.2l91.3,91.3L299,229.8m0-24.11-7.14,7.14L299,220l7.14-7.14L299,205.69m7.26-99.46v64.59h26.54v-9.69H316v-54.9h-9.74M298,170.82h0l-10.82-64.59H273.78l-11,64.59H273L275.32,156h10.17l2.28,14.85H298M299,57l-7.14,7.13L299,71.31l7.14-7.15L299,57M237.86,161.18h-4.07V141.9h4.07a6.63,6.63,0,0,1,5.46,2.27q2.07,2.47,2.07,7.89a11.37,11.37,0,0,1-.67,4q-1.92,5.1-6.86,5.1m-14.59-7.06-8.71-8.72V131.59l8.71-8.71v31.24m60.78-7.63h-7.21L280.43,121l3.62,25.47m-46.19-13.92h-4.07V116.08h4.07a6.15,6.15,0,0,1,4.69,1.9c1.31,1.38,2,3.4,2,6.08a12.59,12.59,0,0,1-.58,4.08,6,6,0,0,1-6.08,4.43"/><polyline class="cls-2" points="229.15 62.72 221.1 54.66 229.15 46.6 237.21 54.66 229.15 62.72"/><polyline class="cls-2" points="229.15 230.39 221.1 222.33 229.15 214.28 237.21 222.33 229.15 230.39"/><polyline class="cls-2" points="298.95 71.31 291.81 64.16 298.95 57.03 306.09 64.16 298.95 71.31"/><polyline class="cls-2" points="298.95 219.97 291.81 212.83 298.95 205.69 306.09 212.83 298.95 219.97"/><polyline class="cls-2" points="159.34 71.31 152.21 64.16 159.34 57.03 166.5 64.16 159.34 71.31"/><polyline class="cls-2" points="159.34 219.97 152.21 212.83 159.34 205.69 166.5 212.83 159.34 219.97"/><polyline class="cls-2" points="145.64 170.82 135.9 170.82 135.9 149.76 135.9 127.23 135.9 116.02 125.54 116.02 125.54 106.23 155.95 106.23 155.95 107.19 155.95 116.02 147.12 116.02 145.64 116.02 145.64 117.5 145.64 159.5 145.64 170.82"/><path class="cls-2" d="M196.47,170.82H185.93L180,146.49h-6.49v24.33h-9.74V106.23h15.36q8.15,0,11.95,4.49,3.36,3.91,3.36,10.92V131a15.09,15.09,0,0,1-5.21,11.6l7.22,28.2m-22.94-54.64v20.67h5.87a5.33,5.33,0,0,0,3.95-1.65,5.46,5.46,0,0,0,1.62-4V121.8c0-3.75-1.85-5.62-5.57-5.62h-5.87"/><polyline class="cls-2" points="214.56 170.82 204.82 170.82 204.82 106.23 214.56 106.23 214.56 131.59 214.56 145.4 214.56 170.82"/><path class="cls-2" d="M241.31,170.82h-18V106.18h14.59c.68,0,1.36,0,2,.09a18.31,18.31,0,0,1,8.39,3,14.12,14.12,0,0,1,5.67,8,22.41,22.41,0,0,1,.94,6.85q0,6.51-3.46,10.42A9.83,9.83,0,0,1,248,137a11.35,11.35,0,0,1,5.51,4.9,19.17,19.17,0,0,1,2.22,6.39,26.61,26.61,0,0,1,.36,4.49,21.53,21.53,0,0,1-2.32,10.41,15,15,0,0,1-12.48,7.63m-7.52-28.92v19.28h4.07q4.94,0,6.86-5.1a11.37,11.37,0,0,0,.67-4q0-5.42-2.07-7.89a6.63,6.63,0,0,0-5.46-2.27h-4.07m0-25.82v16.49h4.07a6,6,0,0,0,6.08-4.43,12.59,12.59,0,0,0,.58-4.08c0-2.68-.66-4.7-2-6.08a6.15,6.15,0,0,0-4.69-1.9h-4.07"/><path class="cls-2" d="M298,170.82H287.77L285.49,156H275.32L273,170.82H262.81l11-64.59h13.41L298,170.82M280.43,121l-3.59,25.47h7.21L280.43,121"/><polyline class="cls-2" points="332.75 170.82 306.21 170.82 306.21 106.23 315.95 106.23 315.95 161.13 332.75 161.13 332.75 170.82"/></g></g></svg>