<svg xmlns="http://www.w3.org/2000/svg" viewBox="0 0 461.3 188.76"><defs><style>.cls-1{fill:#1a1a1a;}.cls-2{fill:#fff;}</style></defs><g id="Capa_2" data-name="Capa 2"><g id="HIPSTER"><path class="cls-1" d="M405.34,188.76H56V0H405.34V188.76m-20.09-20.07V184.3h15.62V168.69H385.25m-324.82,0V184.3H76V168.69H60.43M301.08,36.08a15.93,15.93,0,0,0-4.54.66,12.39,12.39,0,0,0-4,2,10.23,10.23,0,0,0-2.92,3.58,11.48,11.48,0,0,0-1.12,5.22v92.5c0,.53.06,1.48.2,2.86a10.83,10.83,0,0,0,5.12,8.08c1.72,1.12,4.14,1.68,7.3,1.68s5.57-.56,7.28-1.68a10.93,10.93,0,0,0,3.75-3.84,11.26,11.26,0,0,0,1.38-4.24c.13-1.38.19-2.33.19-2.86V95.93h-8.41v44.14c0,.53,0,1.15-.06,1.87a6.36,6.36,0,0,1-.46,2.08,4,4,0,0,1-1.25,1.67,4.61,4.61,0,0,1-4.85,0,4.1,4.1,0,0,1-1.26-1.67,6.91,6.91,0,0,1-.46-2.08c0-.72-.06-1.34-.06-1.87V47.57a7.92,7.92,0,0,1,.36-2.59,3.85,3.85,0,0,1,.95-1.57,3.26,3.26,0,0,1,1.35-.79,5.06,5.06,0,0,1,1.55-.23,5.15,5.15,0,0,1,1.55.23,3.25,3.25,0,0,1,1.33.79,3.74,3.74,0,0,1,1,1.57,7.66,7.66,0,0,1,.36,2.59V83.31h8.41V47.57a11.19,11.19,0,0,0-1.05-5A10.39,10.39,0,0,0,309.81,39a12.4,12.4,0,0,0-4-2.17,15.42,15.42,0,0,0-4.69-.72m-30.49,1V150.58H279V37.07h-8.41M242.22,66.33l10.5,84.25h8.41V37.07h-6.3v84.24L244.32,37.07h-8.41V150.58h6.31V66.33m-31.54,29.6h8.41v54.65h8.41V37.07h-8.41V89.62h-8.41V37.07h-8.41V150.58h8.41V95.93M170.74,37.07v6.31h8.41v107.2h8.4V43.38H196V37.07H170.74m-23.13,0V150.58h18.92v-6.3H156V93.83h8.41V87.52H156V43.38h10.51V37.07H147.61m235.52,87.38L381,126.6l9.16,9.18,2.16-2.16-9.18-9.17m-9,0L372,126.6l9.17,9.18,2.15-2.16-9.17-9.17m-9,0L363,126.6l9.17,9.18,2.15-2.16-9.17-9.17m-9,0-2.15,2.15,9.18,9.18,2.14-2.16-9.17-9.17m-9.05.08-2.06,2.07,9.16,9.18,2.15-2.16-9.1-9.1L391,122.26,347.31,120l9.11-9.1-2.15-2.16-9.16,9.17,2.07,2.08-6.67-.34v-.1H323.6V125h16.91v-.09l6.66-.34m-250-15.79L69,122.26l28.19,13.52V125h40v-5.41h-40V108.74m293,0L381,117.91l2.14,2.15,9.18-9.16-2.16-2.16m-9,0L372,117.91l2.15,2.15,9.17-9.16-2.15-2.16m-9,0L363,117.91l2.15,2.15,9.17-9.16-2.15-2.16m-9,0-9.18,9.17,2.15,2.15,9.17-9.16-2.14-2.16m.86-40.4V79.15l28.2-13.52-28.2-13.51V62.93h-40.5v5.41h40.5M114,67.89,104.87,77,107,79.15,116.19,70l-2.07-2.08,6.67.34V63l-6.67.34,2.07-2.08L107,52.12l-2.16,2.15,9.11,9.1L70.26,65.63,114,67.89m-8.91-.06L95.9,77l2.15,2.15L107.22,70l-2.14-2.15m-9,0L86.93,77l2.15,2.15L98.25,70l-2.14-2.15m-9,0L78,77l2.14,2.15L89.28,70l-2.14-2.15m-9,0L69,77l2.14,2.15L80.31,70l-2.14-2.15m42.62-4.9v5.41h16.37V62.93H120.79M98.05,52.12,95.9,54.27l9.18,9.17,2.14-2.16-9.17-9.16m-9,0-2.15,2.15,9.18,9.17,2.14-2.16-9.17-9.16m-9,0L78,54.27l9.17,9.17,2.14-2.16-9.17-9.16m-9,0L69,54.27l9.17,9.17,2.14-2.16-9.17-9.16M385.25,4.46V20.07h15.62V4.46H385.25m-324.82,0V20.07H76V4.46H60.43"/><path class="cls-1" d="M461.3,114.7H420.69V74.08H461.3V114.7M441,78,424.61,94.38,441,110.77l16.39-16.39L441,78"/><path class="cls-1" d="M40.62,114.7H0V74.08H40.62V114.7M20.31,78,3.92,94.38l16.39,16.39L36.7,94.38,20.31,78"/><polyline class="cls-2" points="440.99 110.77 424.61 94.38 440.99 77.99 457.38 94.38 440.99 110.77"/><polyline class="cls-2" points="20.31 110.77 3.92 94.38 20.31 77.99 36.7 94.38 20.31 110.77"/><polyline class="cls-2" points="76.05 20.07 60.43 20.07 60.43 4.46 76.05 4.46 76.05 20.07"/><polyline class="cls-2" points="400.87 20.07 385.25 20.07 385.25 4.46 400.87 4.46 400.87 20.07"/><polyline class="cls-2" points="76.05 184.3 60.43 184.3 60.43 168.69 76.05 168.69 76.05 184.3"/><polyline class="cls-2" points="400.87 184.3 385.25 184.3 385.25 168.69 400.87 168.69 400.87 184.3"/><polyline class="cls-2" points="364.11 79.15 364.11 68.33 370.37 68.33 370.37 62.93 364.11 62.93 364.11 52.12 392.31 65.63 364.11 79.15"/><polyline class="cls-2" points="120.79 68.24 114.12 67.9 114.05 67.83 113.99 67.89 70.25 65.63 113.98 63.37 114.05 63.44 114.13 63.36 120.79 63.02 120.79 68.24"/><polyline class="cls-2" points="137.16 68.33 120.79 68.33 120.79 62.93 137.16 62.93 137.16 68.33"/><polyline class="cls-2" points="370.37 68.33 364.11 68.33 323.61 68.33 323.61 62.93 364.11 62.93 370.37 62.93 370.37 68.33"/><path class="cls-2" d="M107,79.15,104.87,77,114,67.89l.06-.06.07.07L116.19,70,107,79.15m-9,0L95.9,77l9.18-9.17L107.22,70l-9.17,9.17m-9,0L86.93,77l9.18-9.17L98.25,70l-9.17,9.17m-9,0L78,77l9.17-9.17L89.28,70l-9.17,9.17m-9,0L69,77l9.17-9.17L80.31,70l-9.17,9.17"/><path class="cls-2" d="M114.05,63.44l-.07-.07-9.11-9.1L107,52.12l9.16,9.16-2.07,2.08-.07.08m-9,0L95.9,54.27l2.15-2.15,9.17,9.16-2.14,2.16m-9,0-9.18-9.17,2.15-2.15,9.17,9.16-2.14,2.16m-9,0L78,54.27l2.14-2.15,9.17,9.16-2.14,2.16m-9,0L69,54.27l2.14-2.15,9.17,9.16-2.14,2.16"/><polyline class="cls-2" points="97.19 135.78 69 122.26 97.19 108.74 97.19 119.55 90.93 119.55 90.93 124.97 97.19 124.97 97.19 135.78"/><polyline class="cls-2" points="340.51 124.87 340.51 119.65 347.18 119.99 347.25 120.06 347.31 120 391.04 122.26 347.32 124.52 347.25 124.45 347.17 124.53 340.51 124.87"/><polyline class="cls-2" points="137.16 124.97 97.19 124.97 90.93 124.97 90.93 119.55 97.19 119.55 137.16 119.55 137.16 124.97"/><polyline class="cls-2" points="340.51 124.97 323.6 124.97 323.6 119.55 340.51 119.55 340.51 119.65 340.51 124.87 340.51 124.97"/><path class="cls-2" d="M383.13,120.06,381,117.91l9.16-9.17,2.16,2.16-9.18,9.16m-9,0L372,117.91l9.17-9.17,2.15,2.16-9.17,9.16m-9,0L363,117.91l9.17-9.17,2.15,2.16-9.17,9.16m-9,0-2.15-2.15,9.18-9.17,2.14,2.16-9.17,9.16m-9,0-.07-.07-2.07-2.08,9.16-9.17,2.15,2.16-9.11,9.1-.06.06"/><path class="cls-2" d="M390.15,135.78,381,126.6l2.14-2.15,9.18,9.17-2.16,2.16m-9,0L372,126.6l2.15-2.15,9.17,9.17-2.15,2.16m-9,0L363,126.6l2.15-2.15,9.17,9.17-2.15,2.16m-9,0-9.18-9.18,2.15-2.15,9.17,9.17-2.14,2.16m-9,0-9.16-9.18,2.06-2.07.08-.08.07.07,9.1,9.1-2.15,2.16"/><polyline class="cls-2" points="166.53 150.58 147.61 150.58 147.61 37.07 166.53 37.07 166.53 43.38 156.02 43.38 156.02 87.52 164.43 87.52 164.43 93.83 156.02 93.83 156.02 144.28 166.53 144.28 166.53 150.58"/><polyline class="cls-2" points="187.55 150.58 179.15 150.58 179.15 43.38 170.74 43.38 170.74 37.07 195.96 37.07 195.96 43.38 187.55 43.38 187.55 150.58"/><polyline class="cls-2" points="227.5 150.58 219.09 150.58 219.09 95.93 210.68 95.93 210.68 150.58 202.27 150.58 202.27 37.07 210.68 37.07 210.68 89.62 219.09 89.62 219.09 37.07 227.5 37.07 227.5 150.58"/><polyline class="cls-2" points="261.13 150.58 252.72 150.58 242.22 66.33 242.22 150.58 235.91 150.58 235.91 37.07 244.32 37.07 254.83 121.31 254.83 37.07 261.13 37.07 261.13 150.58"/><polyline class="cls-2" points="279 150.58 270.59 150.58 270.59 37.07 279 37.07 279 150.58"/><path class="cls-2" d="M301.08,152.69c-3.16,0-5.58-.56-7.3-1.68a10.83,10.83,0,0,1-5.12-8.08c-.14-1.38-.2-2.33-.2-2.86V47.57a11.48,11.48,0,0,1,1.12-5.22,10.23,10.23,0,0,1,2.92-3.58,12.39,12.39,0,0,1,4-2,15.93,15.93,0,0,1,4.54-.66,15.42,15.42,0,0,1,4.69.72,12.4,12.4,0,0,1,4,2.17,10.39,10.39,0,0,1,2.82,3.61,11.19,11.19,0,0,1,1.05,5V83.31h-8.41V47.57a7.66,7.66,0,0,0-.36-2.59,3.74,3.74,0,0,0-1-1.57,3.25,3.25,0,0,0-1.33-.79,5.15,5.15,0,0,0-1.55-.23,5.06,5.06,0,0,0-1.55.23,3.26,3.26,0,0,0-1.35.79,3.85,3.85,0,0,0-.95,1.57,7.92,7.92,0,0,0-.36,2.59v92.5c0,.53,0,1.15.06,1.87a6.91,6.91,0,0,0,.46,2.08,4.1,4.1,0,0,0,1.26,1.67,4.61,4.61,0,0,0,4.85,0,4,4,0,0,0,1.25-1.67,6.36,6.36,0,0,0,.46-2.08c0-.72.06-1.34.06-1.87V95.93h8.41v44.14c0,.53-.06,1.48-.19,2.86a11.26,11.26,0,0,1-1.38,4.24,10.93,10.93,0,0,1-3.75,3.84c-1.71,1.12-4.13,1.68-7.28,1.68"/></g></g></svg>