<svg xmlns="http://www.w3.org/2000/svg" viewBox="0 0 463.32 285"><defs><style>.cls-1{fill:#323232;}.cls-2{fill:#2d2d2d;}.cls-3{fill:#232323;}</style></defs><g id="Capa_2" data-name="Capa 2"><g id="HIPSTER"><path class="cls-1" d="M192.56,121.38c-1.88-.47-4.83-2.67-4.29-5,.39-1.69,1.13-2.89-1.32-3.7a5.36,5.36,0,0,0-4,.5,56.54,56.54,0,0,1-5.77-1.13c-21.34-5.36-37.66-22.75-47.74-41.61-.71-1.33-1.39-2.67-2-4-.88-1.88-1-3.76-3.64-2.42-2.68,8.33,9.77,37.39,16.39,39.52-6.21-.63-11.69,2.48-17.49,4-6.37,1.69-13.2,1.19-19.57-.21-10.3-2.29-21.34-6.8-28-15.34-7.65-9.84-12.67-21.74-17.22-33.25-3.29-8.28-5.53-17.39-9.6-25.32-3,8.72-3.87,33.3,6.55,53.65C15.11,49.18,8.35,2.43,0,0,.81,5.66,1.34,11.32,2.58,16.92A125.07,125.07,0,0,0,13,45.32c7.32,14.68,16.76,28.25,27,41,8.66,10.79,19.18,20.21,31.55,26.56,16.57,8.5,35.55,10.68,53.75,7.16,6.9-1.33,13.48-4.22,20.63-3.43a45.52,45.52,0,0,1,16.7,5.59A29,29,0,0,1,167,125c2,1.61.53,3.71,1.49,5.56.83,1.66,3.76,1.38,5.31,1.41s2.24,1,3,2.28C183.25,129.78,194.1,121.76,192.56,121.38Z"/><path class="cls-1" d="M408.5,87.09c10.42-20.35,9.54-44.93,6.55-53.65-4.06,7.93-6.32,17-9.59,25.32C400.9,70.27,395.88,82.17,388.24,92c-6.64,8.54-17.67,13-28,15.34-6.38,1.4-13.19,1.9-19.56.21-5.81-1.54-11.29-4.65-17.49-4,6.61-2.13,19.06-31.19,16.38-39.52-2.62-1.34-2.76.54-3.64,2.42-.64,1.37-1.32,2.71-2,4-10.08,18.86-26.4,36.25-47.74,41.61a56.88,56.88,0,0,1-5.76,1.13,5.37,5.37,0,0,0-4.05-.5c-2.46.81-1.72,2-1.33,3.7.54,2.29-2.41,4.49-4.29,5-1.53.38,9.31,8.4,15.85,12.89.7-1.23,1.41-2.25,2.95-2.28s4.47.25,5.32-1.41c.95-1.85-.54-4,1.48-5.56a29,29,0,0,1,4.37-2.81,45.51,45.51,0,0,1,16.71-5.59c7.14-.79,13.73,2.1,20.63,3.43,18.19,3.52,37.17,1.34,53.74-7.16,12.37-6.35,22.9-15.77,31.55-26.56,10.25-12.76,19.7-26.33,27-41a124.54,124.54,0,0,0,10.35-28.4C462,11.32,462.51,5.66,463.32,0,455,2.43,448.21,49.18,408.5,87.09Z"/><path class="cls-2" d="M114.07,242.42a5.22,5.22,0,0,1,4.46,7.93l-14.68,24.2H359.47l-14.68-24.2a5.23,5.23,0,0,1,8.94-5.42l19.5,32.14a5.23,5.23,0,0,1-4.47,7.93H94.57a5.22,5.22,0,0,1-4.47-7.93l19.5-32.14A5.22,5.22,0,0,1,114.07,242.42Z"/><path class="cls-2" d="M231.67,48.64a5.23,5.23,0,0,1,4.46,2.52L313.08,178a5.23,5.23,0,1,1-8.94,5.42L231.67,63.94,159.18,183.38a5.23,5.23,0,0,1-8.94-5.42l77-126.8A5.22,5.22,0,0,1,231.67,48.64Z"/><g id="cross_arrows" data-name="cross arrows"><polygon class="cls-1" points="255.25 172.91 253.16 174.99 214.36 136.19 213.45 131.24 206.22 124 207.39 130.38 207.21 130.57 200.83 129.4 208.06 136.63 213.01 137.54 251.81 176.34 249.73 178.43 253.5 179.44 257.27 180.45 256.26 176.68 255.25 172.91"/><polygon class="cls-1" points="255.93 130.38 257.11 124 249.87 131.24 248.96 136.19 210.16 174.99 208.07 172.91 207.06 176.68 206.05 180.45 209.82 179.44 213.59 178.43 211.51 176.34 250.31 137.54 255.26 136.63 262.5 129.4 256.12 130.57 255.93 130.38"/></g><path class="cls-3" d="M132.35,192v45.6h-7.62V228H103.88v9.51H96.26V192h7.62v28.53h20.85V192Z"/><path class="cls-3" d="M151.7,237.55h-7.62V192h7.62Z"/><path class="cls-3" d="M171.05,237.55h-7.63V192h17.72a21,21,0,0,1,8.66,2.15c5.87,2.93,9.06,8.47,9.06,15.57s-3.19,12.71-9.06,15.64a20.4,20.4,0,0,1-8.66,2.08H171.05Zm0-17.71h10.09a13.54,13.54,0,0,0,5.48-1.44c3.12-1.69,4.68-4.49,4.68-8.73s-1.63-7.16-4.88-8.79a14,14,0,0,0-5.28-1.3H171.05Z"/><path class="cls-3" d="M208,227.33l7.1-2.61c1.44,3.91,5.15,5.28,8.47,5.28.33,0,.59-.07.91-.07,3.46-.26,7.3-2.08,8-5.53a4.26,4.26,0,0,0,.13-1.24,5.11,5.11,0,0,0-1.18-3.32c-1.69-2.16-4.88-3.39-8.66-3.46s-9-1.3-11.92-6.19a12.67,12.67,0,0,1-1.82-6.06,13,13,0,0,1,1.82-6.11c2.93-5,8.14-6.07,12-6.07,6.38,0,11.27,4.3,11.78,4.83l-4.16,6.31s-4.11-3.58-7.62-3.58c-1,0-4.11,0-5.48,2.35a4.71,4.71,0,0,0-.71,2.27,5.35,5.35,0,0,0,.78,2.35c1,1.44,2.86,2.22,5.54,2.28,6.05.13,11.26,2.48,14.33,6.39a12.72,12.72,0,0,1,2.86,8.07,12.09,12.09,0,0,1-.26,2.67c-1.3,6.39-7.29,11.08-14.91,11.6a11.56,11.56,0,0,1-1.44.06C216.26,237.55,210.26,233.65,208,227.33Z"/><path class="cls-3" d="M279.51,199.58H266.22v38H258.6v-38H245.31V192h34.2Z"/><path class="cls-3" d="M297.36,199.58v13.29h18.5v7.61h-18.5v9.45h22.47v7.62H289.74V192h30.09v7.63Z"/><path class="cls-3" d="M339.25,237.55h-7.62V192h17.71A21.09,21.09,0,0,1,358,194.1c5.86,2.93,9.05,8.47,9.05,15.57s-3.19,12.71-9.05,15.64l-.52.26,8.4,12h-9.25c-7.17-10.16-7.23-10.16-7.3-10.16H339.25Zm0-17.71h10.09a13.47,13.47,0,0,0,5.47-1.44c3.13-1.69,4.7-4.49,4.7-8.73s-1.63-7.16-4.89-8.79a14,14,0,0,0-5.28-1.3H339.25Z"/></g></g></svg>