<svg xmlns="http://www.w3.org/2000/svg" viewBox="0 0 443.8 412"><defs><style>.cls-1{fill:#232323;}.cls-2{fill:#f0f0f0;}</style></defs><g id="Capa_2" data-name="Capa 2"><g id="HIPSTER"><path class="cls-1" d="M425.51,215.39a9.59,9.59,0,0,0,2.39-6.14,12.4,12.4,0,0,0-.42-3.25,17.36,17.36,0,0,0-1.84-3.9,9.61,9.61,0,0,0,2.08-6.32,13.84,13.84,0,0,0-2.75-7,9,9,0,0,0,1.61-6.43,14,14,0,0,0-3.12-6.83,9.12,9.12,0,0,0,1.14-6.5,12.58,12.58,0,0,0-1.06-3.11,13.93,13.93,0,0,0-2.54-3.49,9.51,9.51,0,0,0,.79-6.58,13.4,13.4,0,0,0-4.06-6.38,8.94,8.94,0,0,0,.34-6.59,14.09,14.09,0,0,0-4.42-6.13,9,9,0,0,0-.16-6.57,10.67,10.67,0,0,0-1.64-2.85,13.57,13.57,0,0,0-3.16-2.93,9.59,9.59,0,0,0-.54-6.6,13.29,13.29,0,0,0-5.21-5.45,9,9,0,0,0-1-6.54,13.94,13.94,0,0,0-5.5-5.13A9.39,9.39,0,0,0,395,94.23a12.72,12.72,0,0,0-2.17-2.45,15.08,15.08,0,0,0-3.68-2.26,9.46,9.46,0,0,0-1.81-6.36,13.68,13.68,0,0,0-6.18-4.34,8.88,8.88,0,0,0-2.24-6.2,13.82,13.82,0,0,0-6.39-4,9.51,9.51,0,0,0-2.67-6,11.63,11.63,0,0,0-2.59-2,17.15,17.15,0,0,0-4.09-1.48,9.41,9.41,0,0,0-3-5.91,14,14,0,0,0-6.92-3,8.7,8.7,0,0,0-3.4-5.67,13.29,13.29,0,0,0-7.05-2.61,9.43,9.43,0,0,0-3.78-5.42,9.58,9.58,0,0,0-2.94-1.43,17.09,17.09,0,0,0-4.26-.7,9.23,9.23,0,0,0-4.11-5.19,14.08,14.08,0,0,0-7.35-1.66A9,9,0,0,0,316,22.66a12.86,12.86,0,0,0-7.46-1.19,9.46,9.46,0,0,0-4.75-4.59,9.56,9.56,0,0,0-3.18-.84,18.35,18.35,0,0,0-4.33.16,9,9,0,0,0-5-4.27,13.67,13.67,0,0,0-7.53-.21,9,9,0,0,0-5.34-3.9,12.69,12.69,0,0,0-7.5.28,9.75,9.75,0,0,0-5.58-3.57A10,10,0,0,0,262,4.35h0a16.43,16.43,0,0,0-4.19,1A9.23,9.23,0,0,0,252,2.14a13.77,13.77,0,0,0-7.41,1.29,8.9,8.9,0,0,0-6-2.78,13.24,13.24,0,0,0-7.31,1.75A9.34,9.34,0,0,0,225.14,0a10.85,10.85,0,0,0-3.25.43A16.3,16.3,0,0,0,218,2.26,9.44,9.44,0,0,0,211.68.18a14.15,14.15,0,0,0-7,2.73,8.8,8.8,0,0,0-6.4-1.59,13.77,13.77,0,0,0-6.84,3.12,9.13,9.13,0,0,0-6.5-1.13,11.16,11.16,0,0,0-3.09,1h0a13.52,13.52,0,0,0-3.51,2.51,9.58,9.58,0,0,0-6.58-.76,13.07,13.07,0,0,0-6.35,4.05,8.91,8.91,0,0,0-6.63-.33,14.19,14.19,0,0,0-6.11,4.41,9,9,0,0,0-6.59.16A11.61,11.61,0,0,0,143.22,16a13.47,13.47,0,0,0-2.95,3.17,9.38,9.38,0,0,0-6.59.53A13.35,13.35,0,0,0,128.22,25a9,9,0,0,0-6.53,1,14,14,0,0,0-5.12,5.53,9.19,9.19,0,0,0-6.45,1.43,12.39,12.39,0,0,0-2.46,2.18h0a14.29,14.29,0,0,0-2.26,3.66A9.56,9.56,0,0,0,99,40.55a13.48,13.48,0,0,0-4.29,6.2A8.77,8.77,0,0,0,88.51,49a13.59,13.59,0,0,0-4,6.41,9.45,9.45,0,0,0-6,2.65,11.15,11.15,0,0,0-2,2.6h0A16.45,16.45,0,0,0,75,64.7a9.31,9.31,0,0,0-5.89,3,14.12,14.12,0,0,0-3,6.91A8.69,8.69,0,0,0,60.46,78a13.08,13.08,0,0,0-2.64,7.06,9.32,9.32,0,0,0-5.4,3.77,9.13,9.13,0,0,0-1.45,3,17.52,17.52,0,0,0-.67,4.27,9.14,9.14,0,0,0-5.21,4.09,14.29,14.29,0,0,0-1.69,7.36A8.79,8.79,0,0,0,38.56,112a12.77,12.77,0,0,0-1.19,7.44A9.76,9.76,0,0,0,32,127.31a16.82,16.82,0,0,0,.15,4.33,9,9,0,0,0-4.29,5,13.9,13.9,0,0,0-.19,7.54,8.89,8.89,0,0,0-3.89,5.32,12.82,12.82,0,0,0,.27,7.52,9.81,9.81,0,0,0-3.58,5.58,10.37,10.37,0,0,0-.18,3.27h0a16.38,16.38,0,0,0,1,4.2A9.16,9.16,0,0,0,18,175.9a14.28,14.28,0,0,0,1.32,7.41,8.94,8.94,0,0,0-2.8,6,13.34,13.34,0,0,0,1.74,7.33,9.46,9.46,0,0,0-2.38,6.14,10.84,10.84,0,0,0,.42,3.25h0a15.43,15.43,0,0,0,1.81,3.92,9.71,9.71,0,0,0-2.07,6.3,14,14,0,0,0,2.75,7,9,9,0,0,0-1.63,6.42,14.1,14.1,0,0,0,3.15,6.84,9.27,9.27,0,0,0-1.16,6.5,12.37,12.37,0,0,0,1.06,3.1l2.39-.45a9.93,9.93,0,0,1-1.18-3,6.88,6.88,0,0,1,1.3-5.43c.76-.81,5.05-5,9.49-8.94s9.34-7.78,10.84-8.94A8.83,8.83,0,0,1,45.14,224a5.87,5.87,0,0,1-1.63,4.72c-.65.57-3.66,3.11-7.07,6.31s-7.11,7-9.67,9.78l2.26-.44-2.29.46c-1.2,1.26-2.1,2.29-2.59,2.84a10,10,0,0,1-1.52-2l-2.38.45a13.59,13.59,0,0,0,2.52,3.5,9.54,9.54,0,0,0-.77,6.59,13.24,13.24,0,0,0,4.07,6.35,8.94,8.94,0,0,0-.36,6.63,13.88,13.88,0,0,0,4.44,6.1,9,9,0,0,0,.15,6.57A11.34,11.34,0,0,0,32,284.69h0a13,13,0,0,0,3.16,2.94,9.41,9.41,0,0,0,.53,6.58,13.36,13.36,0,0,0,5.21,5.48,9,9,0,0,0,1,6.53,14.08,14.08,0,0,0,5.53,5.12,9.25,9.25,0,0,0,1.44,6.44A12.21,12.21,0,0,0,51,320.22a14.34,14.34,0,0,0,3.68,2.27,9.53,9.53,0,0,0,1.79,6.36,13.63,13.63,0,0,0,6.19,4.32,8.92,8.92,0,0,0,2.25,6.21,13.57,13.57,0,0,0,6.39,4,9.42,9.42,0,0,0,2.67,6,11.64,11.64,0,0,0,2.57,2h0a16.3,16.3,0,0,0,4,1.49,9.46,9.46,0,0,0,3,5.91,14.16,14.16,0,0,0,6.93,3,8.8,8.8,0,0,0,3.39,5.67,13.51,13.51,0,0,0,7.06,2.62,9.51,9.51,0,0,0,3.77,5.42,10.2,10.2,0,0,0,2.94,1.44,15.93,15.93,0,0,0,4.28.66,9.13,9.13,0,0,0,4.08,5.21,14.17,14.17,0,0,0,7.38,1.65,8.8,8.8,0,0,0,4.44,4.87,12.88,12.88,0,0,0,7.45,1.2,9.37,9.37,0,0,0,4.73,4.6,9.92,9.92,0,0,0,3.2.83,17.59,17.59,0,0,0,4.31-.16,9.1,9.1,0,0,0,5,4.29,14,14,0,0,0,7.54.19,8.91,8.91,0,0,0,5.32,3.91,13.13,13.13,0,0,0,7.53-.29,9.56,9.56,0,0,0,5.56,3.58,9.2,9.2,0,0,0,3.29.16,16.37,16.37,0,0,0,4.19-1,9,9,0,0,0,5.77,3.22,13.76,13.76,0,0,0,7.43-1.29,8.92,8.92,0,0,0,6,2.8,13.26,13.26,0,0,0,7.31-1.74,9.37,9.37,0,0,0,6.12,2.39,12.37,12.37,0,0,0,3.26-.42,17.89,17.89,0,0,0,3.93-1.82,9.58,9.58,0,0,0,6.26,2.06,14,14,0,0,0,7.07-2.75,8.78,8.78,0,0,0,6.39,1.62,13.82,13.82,0,0,0,6.86-3.14,9.06,9.06,0,0,0,6.47,1.15,11.34,11.34,0,0,0,3.11-1.06,14.12,14.12,0,0,0,3.53-2.53,9.41,9.41,0,0,0,6.56.79,13.27,13.27,0,0,0,6.36-4.07,8.93,8.93,0,0,0,6.62.34,14.16,14.16,0,0,0,6.09-4.41,9,9,0,0,0,6.59-.16,11.73,11.73,0,0,0,2.85-1.64,14,14,0,0,0,2.93-3.17,9.55,9.55,0,0,0,6.61-.53,13.09,13.09,0,0,0,5.43-5.24,8.83,8.83,0,0,0,6.55-1,13.8,13.8,0,0,0,5.13-5.52,9.26,9.26,0,0,0,6.43-1.43,13.44,13.44,0,0,0,2.46-2.17,16.36,16.36,0,0,0,2.27-3.7,9.27,9.27,0,0,0,6.35-1.8,13.46,13.46,0,0,0,4.32-6.17,8.84,8.84,0,0,0,6.22-2.24,14.12,14.12,0,0,0,4-6.4,9.5,9.5,0,0,0,6-2.67,11.15,11.15,0,0,0,2-2.6,17.05,17.05,0,0,0,1.47-4.07,9.33,9.33,0,0,0,5.91-3,14.1,14.1,0,0,0,3-6.9,8.84,8.84,0,0,0,5.65-3.39A13.33,13.33,0,0,0,386,327a9.42,9.42,0,0,0,5.42-3.77,10,10,0,0,0,1.45-3,16.91,16.91,0,0,0,.66-4.27,9.1,9.1,0,0,0,5.2-4.09,13.63,13.63,0,0,0,1.66-7.33,9,9,0,0,0,4.88-4.47,12.66,12.66,0,0,0,1.2-7.45,9.38,9.38,0,0,0,4.59-4.74,9.62,9.62,0,0,0,.83-3.18h0a17.61,17.61,0,0,0-.16-4.31,9,9,0,0,0,4.29-5,14,14,0,0,0,.2-7.55,9.1,9.1,0,0,0,3.91-5.32,13,13,0,0,0-.3-7.54,9.73,9.73,0,0,0,3.75-8.84,17.32,17.32,0,0,0-1-4.19,9.3,9.3,0,0,0,3.25-5.77,14.53,14.53,0,0,0-1.31-7.45,8.8,8.8,0,0,0,2.78-6A13.38,13.38,0,0,0,425.51,215.39Zm-2.27-1.12c-.9.66-5.84,3.94-11,6.93s-10.57,5.84-12.34,6.7a9.7,9.7,0,0,1-1.14-5,5.81,5.81,0,0,1,2.53-4.33c.73-.44,4.28-2.33,8.1-4.82s8.37-5.52,11.46-7.73h0c1.38-1,2.47-1.84,3.06-2.3a18.84,18.84,0,0,1,1.14,2.3,9.69,9.69,0,0,1,.54,3.21A6.89,6.89,0,0,1,423.24,214.27Zm2.18-18.35a7,7,0,0,1-2.1,5.2c-.65.51-3.28,2.53-6.51,4.88h-.05c-5.89,4.19-13.63,9-15.83,10.19a9.82,9.82,0,0,1-1.52-4.95,5.9,5.9,0,0,1,2.33-4.45c.21-.16.63-.42,1.2-.79h0c2.16-1.44,6.61-4.53,10.87-7.76s8.08-6.56,9.49-7.73A10.77,10.77,0,0,1,425.42,195.92Zm-1.11-13.31a6.43,6.43,0,0,1-1.72,5.33c-.86.76-5.31,4.66-10,8.29-4.82,3.69-9.83,7.17-11.42,8.23a9.12,9.12,0,0,1-1.82-4.82,6.3,6.3,0,0,1,2-4.64c.86-.62,5.36-4,10-7.94s9.06-8.26,10.53-9.7A11.12,11.12,0,0,1,424.31,182.61Zm-3.17-16.22h0a9.33,9.33,0,0,1,1.17,3,6.78,6.78,0,0,1-1.29,5.42c-.79.81-5.07,5-9.5,8.95s-9.36,7.76-10.84,9a9.25,9.25,0,0,1-2.08-4.74,5.84,5.84,0,0,1,1.65-4.71c.65-.57,3.64-3.12,7.07-6.29s7.1-7,9.68-9.8h0c1.18-1.29,2.11-2.3,2.61-2.86A10.47,10.47,0,0,1,421.14,166.39Zm-1.59-10a6.77,6.77,0,0,1-1,5.5c-.56.64-2.64,3.12-5.49,6.08h0c-4.94,5.25-11.57,11.45-13.55,13.06a10.58,10.58,0,0,1-2.44-4.55,5.88,5.88,0,0,1,1.39-4.83l1-1h0c1.94-1.87,5.6-5.74,9.18-9.73s6.68-8,7.81-9.43A10.13,10.13,0,0,1,419.55,156.39Zm-7.06-17.54a10.91,10.91,0,0,1,3.38,4.71,6.42,6.42,0,0,1-.61,5.54c-.73.94-4.25,5.6-8.18,10.12s-8.2,8.91-9.56,10.27a9.31,9.31,0,0,1-2.77-4.37,6.14,6.14,0,0,1,1.11-4.92c.7-.8,4.42-5,8.2-9.77S411.31,140.58,412.49,138.85Zm-2.9-10.59,1.33-.56-1.31.56a9.34,9.34,0,0,1,1.74,2.74,6.7,6.7,0,0,1-.19,5.56c-.63,1-4,5.89-7.56,10.65s-7.64,9.43-8.88,10.88a9,9,0,0,1-3-4.2,5.92,5.92,0,0,1,.69-5c.53-.69,2.94-3.76,5.69-7.58s5.57-8.27,7.58-11.5h0c.94-1.49,1.64-2.66,2-3.31A8.9,8.9,0,0,1,409.59,128.26Zm-7.5-13.69a10.2,10.2,0,0,1,4,4.19h0a7,7,0,0,1,.1,5.6c-.45.71-2,3.57-4.18,7l-.05,0c-3.8,6.12-9.12,13.51-10.72,15.48a10.39,10.39,0,0,1-3.26-4,6,6,0,0,1,.41-5c.14-.19.41-.59.79-1.15h0c1.56-2.2,4.38-6.72,7.09-11.35S401.25,116.18,402.09,114.57ZM395.72,103a11.19,11.19,0,0,1,4.24,4,6.49,6.49,0,0,1,.46,5.56c-.5,1-3.07,6.31-6,11.5s-6.3,10.35-7.36,12a9.1,9.1,0,0,1-3.57-3.74,6.23,6.23,0,0,1,.09-5c.54-.94,3.38-5.79,6.14-11.19S394.91,104.88,395.72,103Zm-8.38-7.5c.63-1.64,1-2.9,1.27-3.65a12,12,0,0,1,2.19,1.32h0a10,10,0,0,1,2.26,2.36A6.85,6.85,0,0,1,394,101c-.38,1.06-2.75,6.55-5.33,11.9s-5.64,10.78-6.55,12.43a9.08,9.08,0,0,1-3.73-3.53,6,6,0,0,1-.3-5c.37-.76,2.16-4.26,4.09-8.52S386,99,387.3,95.48Zm-6.57-14.27a10.87,10.87,0,0,1,4.72,3.31A6.88,6.88,0,0,1,386.67,90c-.27.81-1.27,3.93-2.71,7.73h0c-2.58,6.75-6.31,15-7.5,17.29a10.52,10.52,0,0,1-4-3.28,6,6,0,0,1-.57-5c.08-.21.27-.66.55-1.29l-1.42.95,1.45-1c1.05-2.43,3-7.44,4.72-12.51S380.26,83,380.77,81.19Zm-3.59-7.09a6.49,6.49,0,0,1,1.55,5.37c-.28,1.12-1.82,6.81-3.67,12.43s-4.16,11.42-4.89,13.2a9.16,9.16,0,0,1-4.21-3,6.28,6.28,0,0,1-.9-5c.35-1,2.17-6.33,3.86-12.16s2.92-11.92,3.36-13.94A11.14,11.14,0,0,1,377.18,74.1ZM362.6,65.32c.24-1.7.41-3,.53-3.8a16.58,16.58,0,0,1,2.41.84h0a10.09,10.09,0,0,1,2.67,1.9,6.83,6.83,0,0,1,1.92,5.21c-.15,1.09-1.41,6.94-2.9,12.71s-3.41,11.66-4,13.47a9.14,9.14,0,0,1-4.34-2.78A5.8,5.8,0,0,1,357.6,88c.21-.83,1.33-4.64,2.33-9.15s2-9.81,2.63-13.54Zm-10.5-.55c.76-5.27,1.12-10.35,1.25-12.17A11.41,11.41,0,0,1,358.68,55a6.86,6.86,0,0,1,2.19,5.14c-.09.83-.52,4.13-1.15,8.09l1.43-1.43-1.46,1.46c-1.21,7.14-3.25,16-4,18.39a9.88,9.88,0,0,1-4.57-2.43,5.88,5.88,0,0,1-1.51-4.79c0-.25.15-.73.28-1.4h0C350.43,75.43,351.4,70.09,352.1,64.77Zm-9.63-6.15c.43-5.91.59-12.27.61-14.33a10.94,10.94,0,0,1,5.38,2.06A6.5,6.5,0,0,1,351,51.29c-.06,1.16-.49,7.07-1.17,13s-1.9,12-2.27,13.88A9,9,0,0,1,342.9,76,6.46,6.46,0,0,1,341,71.32C341.17,70.26,342,64.63,342.47,58.62ZM332.23,36.74a15.6,15.6,0,0,1,2.53.35l1.33-2-1.31,2a8.56,8.56,0,0,1,3,1.3,6.85,6.85,0,0,1,2.88,4.78c0,1.12,0,7-.38,13s-1.06,12.06-1.33,14a9.86,9.86,0,0,1-4.81-1.86A5.84,5.84,0,0,1,332,63.8c.06-.85.44-4.85.5-9.41s.12-10.07-.05-13.8l-.74,1.1.75-1.13C332.34,38.84,332.29,37.5,332.23,36.74Zm-5.65-5.59a6.76,6.76,0,0,1,3.17,4.62c.07.82.27,4.15.44,8.17l0,0c.21,7.18-.15,16.34-.34,18.8a9.76,9.76,0,0,1-4.94-1.46,6,6,0,0,1-2.43-4.46V55.47l0,0c0-2.59-.09-8-.39-13.39s-.95-10.34-1.16-12.19A11.51,11.51,0,0,1,326.58,31.15ZM314.9,24.7A6.54,6.54,0,0,1,318.39,29c.18,1.15.91,7.05,1.35,13s.48,12.13.5,14a9.06,9.06,0,0,1-5-1.19,6.23,6.23,0,0,1-2.73-4.2c-.07-1-.37-6.79-1.08-12.73s-1.8-12.2-2.2-14.19A11.1,11.1,0,0,1,314.9,24.7Zm-15.24-6.41a8,8,0,0,1,3.18.69,6.86,6.86,0,0,1,3.77,4.13c.11.56.46,2.26.89,4.59s.89,5.28,1.31,8.25.74,5.95,1,8.44.33,4.54.4,5.52a10.11,10.11,0,0,1-5.06-.84,6,6,0,0,1-3-4c-.12-.88-.52-4.81-1.33-9.34S299,25.77,298,22.17v0c-.43-1.67-.76-3-1-3.72A16.32,16.32,0,0,1,299.66,18.29Zm-9.2-4.19a6.71,6.71,0,0,1,4,3.85c.21.82,1.06,4,2,8l0,0c1.65,7,3.06,16.09,3.37,18.5A9.53,9.53,0,0,1,294.7,44a6.19,6.19,0,0,1-3.26-3.86c0-.26-.13-.73-.28-1.37l0,0c-.52-2.56-1.65-7.88-3-13.06s-3-10-3.53-11.73A10.83,10.83,0,0,1,290.46,14.1ZM277.74,10A6.71,6.71,0,0,1,282,13.57c.39,1.11,2.28,6.75,3.85,12.45s2.87,11.83,3.24,13.7a9.06,9.06,0,0,1-5.14-.21A6,6,0,0,1,280.45,36c-.27-1-1.66-6.63-3.55-12.28S272.74,12.06,272,10.19A10.43,10.43,0,0,1,277.74,10ZM261.51,6.76v0a8.18,8.18,0,0,1,3.28,0,7,7,0,0,1,4.49,3.33c.22.54.89,2.15,1.79,4.3s1.91,5,2.9,7.87,1.88,5.7,2.63,8.05,1.24,4.4,1.48,5.35a10.23,10.23,0,0,1-5.15.16,5.89,5.89,0,0,1-3.72-3.36c-.27-.85-1.48-4.61-3.13-8.86s-3.76-9.36-5.37-12.71v-.05c-.77-1.56-1.34-2.77-1.67-3.47A12.85,12.85,0,0,1,261.51,6.76Zm-9.83-2.35a6.71,6.71,0,0,1,4.72,3c.35.74,1.85,3.72,3.52,7.34v.07c3,6.48,6.17,15.18,6.92,17.47a9.19,9.19,0,0,1-5.13.55,6.06,6.06,0,0,1-3.92-3.15c-.12-.22-.29-.67-.55-1.26v0c-1-2.42-3.16-7.4-5.51-12.23S246.86,7,246,5.39A11.48,11.48,0,0,1,251.68,4.41ZM238.4,2.94a6.52,6.52,0,0,1,4.91,2.65c.59,1,3.53,6.16,6.23,11.43s5.11,11,5.85,12.81a9.3,9.3,0,0,1-5.07.82,6.27,6.27,0,0,1-4.17-2.83c-.46-.95-2.92-6.12-5.87-11.36S233.91,6,232.79,4.22A11,11,0,0,1,238.4,2.94Zm-16.51-.08a9.17,9.17,0,0,1,3.21-.56,6.8,6.8,0,0,1,5.07,2.36c.64.87,3.92,5.83,7,11s5.82,10.58,6.66,12.37a10.23,10.23,0,0,1-5,1.13,5.92,5.92,0,0,1-4.31-2.54c-.44-.74-2.34-4.27-4.83-8.12s-5.52-8.37-7.73-11.44V7c-1-1.37-1.83-2.46-2.3-3.05A13.1,13.1,0,0,1,221.89,2.86Zm-10.08-.38A7,7,0,0,1,217,4.57c.51.64,2.53,3.27,4.89,6.53v0c4.17,5.89,9,13.63,10.19,15.82a9.51,9.51,0,0,1-4.93,1.52,6,6,0,0,1-4.5-2.31c-.11-.22-.39-.63-.76-1.2v0c-1.44-2.15-4.53-6.6-7.77-10.87S207.58,6,206.38,4.57A11,11,0,0,1,211.81,2.48Zm-13.3,1.11a6.55,6.55,0,0,1,5.33,1.71c.77.86,4.64,5.32,8.3,10,3.7,4.82,7.13,9.83,8.22,11.44a9.53,9.53,0,0,1-4.82,1.83,6.37,6.37,0,0,1-4.64-2c-.65-.85-4.05-5.34-8-10s-8.24-9-9.69-10.54A11.09,11.09,0,0,1,198.51,3.59ZM182.28,6.76v0a10.3,10.3,0,0,1,3-1.19,6.91,6.91,0,0,1,5.42,1.29c.82.78,5,5.08,8.92,9.51s7.79,9.34,9,10.83a8.83,8.83,0,0,1-4.69,2.07,5.87,5.87,0,0,1-4.75-1.64c-.55-.66-3.1-3.66-6.28-7s-7-7.11-9.8-9.68v0c-1.28-1.21-2.31-2.11-2.86-2.6A10.42,10.42,0,0,1,182.28,6.76Zm-10,1.58a6.76,6.76,0,0,1,5.49,1c.66.57,3.14,2.65,6.09,5.49v0c5.25,4.93,11.46,11.56,13.07,13.56a10.36,10.36,0,0,1-4.55,2.42,5.88,5.88,0,0,1-4.83-1.39c-.18-.17-.52-.52-1-1v0c-1.85-2-5.73-5.62-9.74-9.19s-8-6.7-9.45-7.8A10.15,10.15,0,0,1,172.29,8.34ZM159.46,12a6.5,6.5,0,0,1,5.55.63c.93.71,5.58,4.26,10.09,8.18S184,29,185.37,30.37A9.08,9.08,0,0,1,181,33.15a6.39,6.39,0,0,1-4.92-1.1c-.79-.72-5-4.44-9.75-8.21s-9.85-7.28-11.58-8.45A11.25,11.25,0,0,1,159.46,12Zm-15.3,6.28a8.78,8.78,0,0,1,2.73-1.75,6.72,6.72,0,0,1,5.57.19c1,.62,5.87,4,10.63,7.56s9.45,7.64,10.89,8.89a9,9,0,0,1-4.2,2.94,5.92,5.92,0,0,1-5-.69c-.69-.53-3.75-2.94-7.56-5.68s-8.3-5.59-11.51-7.58v0c-1.49-.92-2.65-1.61-3.32-2A10.47,10.47,0,0,1,144.16,18.29Zm-9.5,3.52a6.9,6.9,0,0,1,5.6-.07c.74.41,3.59,2,7,4.17v0c6.11,3.79,13.51,9.11,15.47,10.73a10.59,10.59,0,0,1-4,3.27,6,6,0,0,1-5-.41c-.22-.16-.62-.41-1.17-.81l.93,2.28-1-2.3c-2.21-1.55-6.72-4.38-11.35-7.08s-9.16-5-10.79-5.82A10.55,10.55,0,0,1,134.66,21.81ZM122.81,28a6.43,6.43,0,0,1,5.57-.48c1.05.52,6.3,3.08,11.5,6s10.36,6.31,12,7.36a9.28,9.28,0,0,1-3.73,3.57,6.26,6.26,0,0,1-5-.09c-.93-.55-5.8-3.37-11.19-6.13s-11.1-5.21-13-6A11,11,0,0,1,122.81,28Zm-11.42,6.88a6.86,6.86,0,0,1,5.49-.89c1,.4,6.54,2.74,11.92,5.33s10.76,5.63,12.42,6.57a8.94,8.94,0,0,1-3.56,3.71,5.88,5.88,0,0,1-5,.3c-.79-.38-4.26-2.16-8.52-4.08s-9.22-3.87-12.78-5.19v0c-1.66-.62-2.92-1-3.64-1.28A9.64,9.64,0,0,1,109,37.09,9.12,9.12,0,0,1,111.39,34.83Zm-11,7.55a7,7,0,0,1,5.47-1.17c.8.29,3.93,1.29,7.7,2.74l0,0c6.76,2.54,15,6.27,17.28,7.5a10.36,10.36,0,0,1-3.26,4,5.8,5.8,0,0,1-5,.58c-.24-.09-.68-.28-1.29-.54l0,0c-2.43-1-7.45-3-12.52-4.72s-9.94-3.07-11.71-3.58A10.7,10.7,0,0,1,100.43,42.38ZM90,50.71a6.43,6.43,0,0,1,5.36-1.55c1.12.31,6.81,1.82,12.46,3.67S119.22,57,121,57.73a9,9,0,0,1-3,4.21,6.27,6.27,0,0,1-4.93.9c-1-.36-6.37-2.18-12.19-3.85S89,56,86.94,55.62A11.3,11.3,0,0,1,90,50.71ZM78.24,62.35h0a9.69,9.69,0,0,1,1.86-2.65,6.85,6.85,0,0,1,5.24-1.94c1.09.17,6.94,1.4,12.71,2.9s11.63,3.43,13.46,4A9,9,0,0,1,108.76,69a5.87,5.87,0,0,1-4.82,1.29c-.84-.21-4.66-1.34-9.15-2.34s-9.83-2-13.56-2.62l.81.81-.84-.83-3.79-.55a15.47,15.47,0,0,1,.85-2.41Zm-7.4,6.89A6.85,6.85,0,0,1,76,67c.82.11,4.1.52,8,1.16l0,0c7.16,1.23,16,3.23,18.42,4a10,10,0,0,1-2.43,4.55,5.8,5.8,0,0,1-4.79,1.51c-.25,0-.73-.14-1.39-.29h0c-2.53-.49-7.86-1.47-13.19-2.2S70.32,74.68,68.5,74.53A11.15,11.15,0,0,1,70.84,69.24Zm-8.59,10.2a6.52,6.52,0,0,1,4.94-2.6c1.16.08,7.06.49,12.94,1.21s12,1.88,13.88,2.24A8.9,8.9,0,0,1,91.89,85a6.32,6.32,0,0,1-4.67,1.87c-1.06-.16-6.68-1-12.69-1.43s-12.28-.59-14.34-.6A10.88,10.88,0,0,1,62.25,79.44Zm-8,10.69a7,7,0,0,1,4.77-2.89c1.12,0,7,0,13,.37s12,1.07,14,1.34a10,10,0,0,1-1.86,4.79,5.92,5.92,0,0,1-4.52,2.19c-.86-.05-4.84-.44-9.42-.53s-10.05-.1-13.79.08l0,0-3.83.19A13.28,13.28,0,0,1,53,93.12h0A8.54,8.54,0,0,1,54.3,90.13Zm-7.24,11.19a6.65,6.65,0,0,1,4.61-3.18c.82,0,4.16-.28,8.16-.42h0l0,0c7.2-.22,16.35.13,18.82.32a9.57,9.57,0,0,1-1.5,5,5.91,5.91,0,0,1-4.43,2.43H71.36l0,0c-2.6,0-8,.08-13.38.4s-10.37.94-12.18,1.15A11.08,11.08,0,0,1,47.06,101.32ZM40.6,113a6.71,6.71,0,0,1,4.32-3.52c1.17-.14,7-.87,13-1.33s12.13-.48,14-.48a9.24,9.24,0,0,1-1.2,5,6.19,6.19,0,0,1-4.2,2.75c-1.05.06-6.79.34-12.72,1.07s-12.2,1.81-14.22,2.18A11.08,11.08,0,0,1,40.6,113Zm-5.72,12.06A6.77,6.77,0,0,1,39,121.28c.54-.09,2.25-.44,4.54-.9s5.33-.86,8.28-1.29,5.95-.75,8.47-1,4.52-.33,5.5-.4a9.61,9.61,0,0,1-.88,5.06,5.78,5.78,0,0,1-4,3c-.88.12-4.8.54-9.31,1.35s-10,1.84-13.53,2.75h0c-1.66.43-3,.76-3.72.94a15.94,15.94,0,0,1-.15-2.53A7.85,7.85,0,0,1,34.88,125.05ZM30,137.44a6.67,6.67,0,0,1,3.9-4c.79-.22,4-1.08,7.93-2L40.73,131l1.12.46c6.94-1.65,16.07-3,18.47-3.36a9.15,9.15,0,0,1-.47,5.16A6.23,6.23,0,0,1,56,136.45c-.26,0-.73.14-1.37.27h0c-2.54.5-7.88,1.63-13.06,3s-10,3-11.72,3.51A11.08,11.08,0,0,1,30,137.44Zm-4,12.73a6.75,6.75,0,0,1,3.56-4.31c1.1-.37,6.73-2.24,12.45-3.83s11.81-2.85,13.68-3.23a8.64,8.64,0,0,1-.22,5.12,5.92,5.92,0,0,1-3.56,3.51c-1,.28-6.59,1.67-12.24,3.58s-11.62,4.14-13.5,4.92A10.55,10.55,0,0,1,25.92,150.17ZM22.68,163.1h0A7.08,7.08,0,0,1,26,158.59c.53-.2,2.13-.86,4.31-1.78s5-1.9,7.85-2.87,5.7-1.92,8.09-2.64,4.39-1.23,5.33-1.48a10.27,10.27,0,0,1,.16,5.13,5.89,5.89,0,0,1-3.36,3.73c-.85.27-4.61,1.48-8.87,3.15s-9.39,3.76-12.73,5.37h0c-1.56.74-2.78,1.32-3.46,1.66a17.8,17.8,0,0,1-.65-2.47A8.76,8.76,0,0,1,22.68,163.1Zm.66,8.41c.74-.37,3.73-1.87,7.38-3.53h0c6.49-3,15.18-6.15,17.47-6.92a9.58,9.58,0,0,1,.56,5.14,6.21,6.21,0,0,1-3.18,3.94l-1.28.52h0c-2.39,1-7.37,3.15-12.2,5.51S22.86,181,21.3,181.93a11.12,11.12,0,0,1-1-5.7A6.71,6.71,0,0,1,23.34,171.51Zm-1.87,13.08c1-.59,6.16-3.55,11.45-6.23s11-5.11,12.78-5.86a8.85,8.85,0,0,1,.82,5.08,6.08,6.08,0,0,1-2.81,4.15c-1,.46-6.13,2.94-11.34,5.9S21.85,194,20.12,195.1a11.31,11.31,0,0,1-1.3-5.62A6.55,6.55,0,0,1,21.47,184.59Zm-.92,13.14c.89-.65,5.83-3.91,11-6.93s10.59-5.84,12.38-6.69a10,10,0,0,1,1.11,5,5.77,5.77,0,0,1-2.54,4.31c-.71.45-4.26,2.34-8.11,4.83S26,203.79,23,206h0l-3.06,2.29A12.7,12.7,0,0,1,18.75,206a9.69,9.69,0,0,1-.55-3.22A6.86,6.86,0,0,1,20.55,197.73ZM18.38,216.1a7,7,0,0,1,2.07-5.21c.68-.51,3.3-2.55,6.54-4.89h0c5.9-4.18,13.64-9,15.84-10.2a9.61,9.61,0,0,1,1.51,4.94,6.1,6.1,0,0,1-2.31,4.5l-1.21.76h0c-2.13,1.45-6.61,4.52-10.84,7.77s-8.1,6.53-9.52,7.74A11.13,11.13,0,0,1,18.38,216.1Zm24,.89c-.88.66-5.36,4-10,7.95s-9.06,8.29-10.55,9.72a11.3,11.3,0,0,1-2.38-5.28,6.49,6.49,0,0,1,1.69-5.33c.86-.75,5.32-4.64,10-8.29s9.83-7.15,11.42-8.22a9.24,9.24,0,0,1,1.82,4.84A6.35,6.35,0,0,1,42.41,217ZM24.22,255.61a7,7,0,0,1,1-5.51c.56-.63,2.64-3.12,5.47-6.07h.05c4.91-5.25,11.58-11.45,13.55-13.06a10.41,10.41,0,0,1,2.41,4.56,5.89,5.89,0,0,1-1.37,4.81c-.17.18-.55.54-1,1h0c-1.94,1.86-5.58,5.74-9.15,9.74s-6.7,8-7.82,9.43A10.23,10.23,0,0,1,24.22,255.61Zm7.06,17.54a11.25,11.25,0,0,1-3.37-4.71,6.47,6.47,0,0,1,.63-5.55c.73-.93,4.24-5.59,8.18-10.1s8.2-8.93,9.55-10.27A9.25,9.25,0,0,1,49,246.89a6.35,6.35,0,0,1-1.1,4.91c-.72.8-4.45,5-8.22,9.77S32.46,271.42,31.28,273.15Zm2.9,10.6A9.17,9.17,0,0,1,32.44,281a6.81,6.81,0,0,1,.18-5.55c.65-1,4-5.89,7.55-10.65s7.65-9.44,8.89-10.87a8.85,8.85,0,0,1,3,4.21,6,6,0,0,1-.69,4.95c-.55.7-2.94,3.75-5.68,7.56s-5.6,8.28-7.57,11.49l0,0c-.92,1.48-1.63,2.67-2,3.32A11.78,11.78,0,0,1,34.18,283.75Zm7.52,13.71a10.67,10.67,0,0,1-4-4.22,6.8,6.8,0,0,1-.1-5.6c.43-.73,2-3.6,4.18-7l-2.42,1,2.44-1c3.81-6.11,9.12-13.51,10.75-15.46a10.12,10.12,0,0,1,3.24,4,5.89,5.89,0,0,1-.4,5c-.13.2-.43.62-.79,1.18h0C53,277.5,50.22,282,47.52,286.64S42.51,295.81,41.7,297.46ZM48.06,309a10.66,10.66,0,0,1-4.21-4,6.42,6.42,0,0,1-.48-5.55c.51-1,3.05-6.31,6-11.5s6.3-10.35,7.37-12a9.22,9.22,0,0,1,3.55,3.76,6.18,6.18,0,0,1-.11,5c-.52.94-3.35,5.79-6.12,11.18S48.89,307.13,48.06,309Zm8.4,7.51c-.63,1.65-1,2.91-1.3,3.64A11.29,11.29,0,0,1,53,318.86h0a9.35,9.35,0,0,1-2.25-2.34,7,7,0,0,1-.91-5.51c.42-1.06,2.75-6.55,5.34-11.91s5.66-10.77,6.58-12.43a9,9,0,0,1,3.72,3.55,5.93,5.93,0,0,1,.29,5c-.38.76-2.17,4.27-4.09,8.51s-3.87,9.23-5.18,12.78ZM63,330.81a10.71,10.71,0,0,1-4.74-3.33A7,7,0,0,1,57.1,322c.29-.8,1.3-3.93,2.73-7.71l0,0c2.57-6.76,6.3-15,7.51-17.29a10.26,10.26,0,0,1,4,3.28,6,6,0,0,1,.59,5l-.57,1.31h0c-1,2.44-3,7.44-4.71,12.52S63.54,329,63,330.81Zm3.6,7.08a6.36,6.36,0,0,1-1.57-5.34c.29-1.14,1.83-6.83,3.67-12.46s4.18-11.42,4.91-13.18a9.12,9.12,0,0,1,4.19,3,6.38,6.38,0,0,1,.91,4.95c-.36,1-2.18,6.35-3.85,12.2-1.59,5.7-2.94,11.89-3.38,13.9A10.94,10.94,0,0,1,66.62,337.89Zm14.58,8.8c-.24,1.7-.43,3-.54,3.78a14.07,14.07,0,0,1-2.4-.83h0a9,9,0,0,1-2.65-1.88,6.8,6.8,0,0,1-1.93-5.22c.17-1.09,1.4-6.94,2.89-12.71s3.43-11.64,4-13.46a8.94,8.94,0,0,1,4.31,2.76A5.78,5.78,0,0,1,86.18,324c-.21.83-1.34,4.65-2.34,9.15s-2,9.81-2.63,13.55Zm10.48.53c-.75,5.29-1.1,10.34-1.24,12.19A11.33,11.33,0,0,1,85.12,357a6.92,6.92,0,0,1-2.22-5.14c.12-.83.54-4.12,1.18-8.09l-.94.94.94-.95c1.24-7.14,3.26-16,4-18.4a9.89,9.89,0,0,1,4.55,2.42,6,6,0,0,1,1.52,4.79c0,.26-.14.76-.28,1.41h0C93.36,336.58,92.38,341.92,91.68,347.22Zm9.65,6.14c-.44,5.92-.59,12.3-.61,14.36a11.35,11.35,0,0,1-5.39-2.06,6.65,6.65,0,0,1-2.6-4.93c.09-1.16.49-7.07,1.2-13s1.88-12,2.25-13.88a9.14,9.14,0,0,1,4.71,2.12,6.36,6.36,0,0,1,1.85,4.69C102.6,341.75,101.8,347.36,101.33,353.36Zm10,18v0c.06,1.73.15,3.07.19,3.85a18.6,18.6,0,0,1-2.51-.39l-.91,1.35.9-1.35a8.17,8.17,0,0,1-3-1.29,6.86,6.86,0,0,1-2.9-4.77c0-1.11,0-7,.38-13s1.07-12.06,1.33-14a9.65,9.65,0,0,1,4.8,1.86,5.87,5.87,0,0,1,2.19,4.51c-.06.85-.44,4.84-.52,9.41S111.19,367.67,111.36,371.4Zm5.86,9.44a6.71,6.71,0,0,1-3.18-4.6c-.06-.85-.29-4.18-.44-8.17l0,0c-.23-7.18.13-16.34.34-18.81a9.67,9.67,0,0,1,5,1.47,6,6,0,0,1,2.41,4.43v1.43c0,2.6.06,8,.37,13.4s1,10.36,1.16,12.17A11.11,11.11,0,0,1,117.22,380.84Zm11.67,6.46a6.7,6.7,0,0,1-3.51-4.32c-.16-1.15-.9-7-1.34-13s-.45-12.17-.49-14.06a9.24,9.24,0,0,1,5,1.2,6.12,6.12,0,0,1,2.74,4.21c.06,1,.33,6.77,1.08,12.71s1.79,12.21,2.21,14.2A10.94,10.94,0,0,1,128.89,387.3Zm15.27,6.4h0A7.76,7.76,0,0,1,141,393a6.79,6.79,0,0,1-3.77-4.13c-.12-.56-.45-2.27-.92-4.57s-.86-5.3-1.28-8.26-.77-5.94-1-8.46-.34-4.55-.42-5.53a10.42,10.42,0,0,1,5.08.88,5.77,5.77,0,0,1,3,4c.12.86.56,4.79,1.33,9.31s1.88,9.94,2.78,13.51l1.28-3.09-1.28,3.14c.43,1.67.75,3,.93,3.72A14.69,14.69,0,0,1,144.16,393.7Zm9.16,4.2a6.5,6.5,0,0,1-4-3.86c-.22-.8-1.1-4-2-7.94v-.05c-1.64-6.94-3.05-16.08-3.35-18.49a9.26,9.26,0,0,1,5.14.49,6.18,6.18,0,0,1,3.24,3.85c.06.26.14.73.28,1.36l0,.05c.51,2.55,1.64,7.87,3,13.07s3,10,3.52,11.72A11.17,11.17,0,0,1,153.32,397.9ZM166.06,402a6.73,6.73,0,0,1-4.31-3.54c-.37-1.11-2.23-6.74-3.84-12.46s-2.83-11.82-3.22-13.7a9.48,9.48,0,0,1,5.15.21,6.19,6.19,0,0,1,3.51,3.58c.27,1,1.64,6.61,3.54,12.27s4.15,11.61,5,13.49A10.8,10.8,0,0,1,166.06,402Zm16.22,3.28h0a7.94,7.94,0,0,1-3.27-.05,6.87,6.87,0,0,1-4.52-3.31l-1.78-4.3c-.85-2.21-1.89-5.05-2.87-7.86s-1.92-5.7-2.66-8.07-1.21-4.39-1.48-5.34a10.21,10.21,0,0,1,5.17-.17,6,6,0,0,1,3.72,3.37c.25.84,1.47,4.6,3.13,8.88s3.77,9.38,5.37,12.73v0c.75,1.55,1.34,2.76,1.65,3.45A13.46,13.46,0,0,1,182.28,405.25Zm9.83,2.36a6.74,6.74,0,0,1-4.71-3c-.36-.76-1.87-3.74-3.53-7.39v0c-3-6.51-6.15-15.2-6.91-17.46a8.81,8.81,0,0,1,5.12-.56,6,6,0,0,1,3.95,3.15c.09.24.27.68.53,1.28l.22-1.09-.22,1.12c1,2.39,3.15,7.4,5.5,12.22s4.88,9.21,5.75,10.79A11.37,11.37,0,0,1,192.11,407.61Zm13.26,1.45a6.58,6.58,0,0,1-4.89-2.65c-.6-1-3.54-6.15-6.22-11.44s-5.12-11.05-5.86-12.79a9.27,9.27,0,0,1,5.08-.83,6.23,6.23,0,0,1,4.16,2.83c.46,1,2.92,6.12,5.87,11.33s6.35,10.55,7.49,12.28A11,11,0,0,1,205.37,409.06Zm16.52.08a9.27,9.27,0,0,1-3.2.56,6.77,6.77,0,0,1-5.06-2.35c-.67-.88-3.92-5.85-6.95-11S200.85,385.74,200,384a10.35,10.35,0,0,1,5-1.14,5.88,5.88,0,0,1,4.31,2.55c.45.74,2.35,4.29,4.81,8.12s5.55,8.36,7.75,11.46h0c1,1.38,1.84,2.46,2.29,3.07A15.94,15.94,0,0,1,221.89,409.14Zm10.1.39a6.94,6.94,0,0,1-5.2-2.1c-.52-.65-2.57-3.29-4.9-6.53h0c-4.18-5.92-9-13.65-10.19-15.85a9.8,9.8,0,0,1,4.93-1.52,5.92,5.92,0,0,1,4.49,2.33c.14.2.39.62.77,1.18v0c1.43,2.17,4.53,6.63,7.76,10.89s6.56,8.08,7.76,9.49A11.11,11.11,0,0,1,232,409.53Zm13.29-1.14a6.44,6.44,0,0,1-5.32-1.67c-.79-.88-4.65-5.33-8.3-10-3.71-4.81-7.16-9.82-8.22-11.43a9,9,0,0,1,4.82-1.81,6.19,6.19,0,0,1,4.62,2c.64.85,4.06,5.34,8,10,3.87,4.5,8.24,9.06,9.69,10.53A10.9,10.9,0,0,1,245.28,408.39Zm16.22-3.14h0a9.57,9.57,0,0,1-3,1.18,6.87,6.87,0,0,1-5.41-1.29c-.83-.77-5-5.06-9-9.49s-7.74-9.35-8.92-10.84a8.8,8.8,0,0,1,4.71-2.06,5.72,5.72,0,0,1,4.72,1.62c.57.66,3.11,3.66,6.3,7.06s7,7.11,9.78,9.69v0c1.28,1.21,2.3,2.12,2.88,2.6A10.65,10.65,0,0,1,261.5,405.25Zm10-1.58a6.92,6.92,0,0,1-5.51-1c-.63-.57-3.13-2.65-6.07-5.47l.6,3.17-.62-3.2c-5.24-4.94-11.46-11.59-13.07-13.57a10.57,10.57,0,0,1,4.56-2.41,6,6,0,0,1,4.85,1.37c.15.2.5.54,1,1l-.08-.32.1.35c1.85,2,5.71,5.61,9.73,9.18s8,6.69,9.44,7.81A10.52,10.52,0,0,1,271.51,403.67ZM284.34,400a6.62,6.62,0,0,1-5.58-.62c-.91-.72-5.57-4.25-10.09-8.19s-8.9-8.2-10.24-9.55a9.17,9.17,0,0,1,4.34-2.76A6.34,6.34,0,0,1,267.7,380c.8.72,5,4.46,9.75,8.21s9.88,7.26,11.58,8.46A11.22,11.22,0,0,1,284.34,400Zm15.29-6.29h0a10.48,10.48,0,0,1-2.76,1.79,6.89,6.89,0,0,1-5.57-.21c-1-.64-5.9-4-10.62-7.56s-9.46-7.66-10.91-8.9a9.19,9.19,0,0,1,4.2-2.95,6.06,6.06,0,0,1,5,.71c.67.51,3.75,2.92,7.55,5.68s8.29,5.58,11.51,7.54v.05c1.48.91,2.65,1.63,3.29,2A9.69,9.69,0,0,1,299.63,393.7Zm9.51-3.52a7.13,7.13,0,0,1-5.63.12c-.71-.45-3.56-2-7-4.21l1.28,3.1-1.31-3.13c-6.1-3.8-13.51-9.12-15.45-10.72a10.15,10.15,0,0,1,4-3.25,5.83,5.83,0,0,1,5,.38l1.16.79,0-.11.08.16c2.18,1.54,6.69,4.37,11.34,7.08s9.17,5,10.8,5.81A10.58,10.58,0,0,1,309.14,390.18ZM321,384.07a6.61,6.61,0,0,1-5.57.48c-1.05-.54-6.32-3.09-11.52-6.05s-10.34-6.31-11.95-7.35a9.42,9.42,0,0,1,3.76-3.57,6.2,6.2,0,0,1,5,.12c.93.53,5.79,3.37,11.19,6.12s11.1,5.2,13,6A11.19,11.19,0,0,1,321,384.07Zm11.43-6.9a6.87,6.87,0,0,1-5.51.89c-1-.4-6.56-2.74-11.91-5.31s-10.78-5.66-12.41-6.59a8.9,8.9,0,0,1,3.55-3.72,6,6,0,0,1,5-.31c.79.4,4.28,2.2,8.54,4.11s9.21,3.88,12.77,5.18h0c1.65.63,2.91,1,3.63,1.31a10.59,10.59,0,0,1-1.31,2.15A9,9,0,0,1,332.42,377.17Zm11-7.55a7,7,0,0,1-5.48,1.17c-.8-.28-3.91-1.28-7.71-2.72l0,0c-6.75-2.55-15-6.29-17.29-7.51a10.11,10.11,0,0,1,3.29-4,5.89,5.89,0,0,1,5-.58c.22.11.7.29,1.3.56l0,0c2.43,1.05,7.42,3,12.52,4.73s9.94,3.06,11.73,3.58A11.28,11.28,0,0,1,343.38,369.62Zm10.41-8.35a6.47,6.47,0,0,1-5.36,1.58c-1.11-.29-6.83-1.84-12.46-3.68s-11.4-4.17-13.17-4.9a8.9,8.9,0,0,1,3-4.2,6.31,6.31,0,0,1,4.94-.91c1,.37,6.34,2.19,12.18,3.86s11.91,2.94,13.93,3.36A11,11,0,0,1,353.79,361.27ZM373,342.77a6.85,6.85,0,0,1-5.16,2.2c-.83-.1-4.15-.51-8.08-1.16l2.88,2.88,3.76.53a14.59,14.59,0,0,1-.82,2.42,8.6,8.6,0,0,1-1.89,2.67,6.8,6.8,0,0,1-5.23,1.93c-1.08-.17-6.92-1.4-12.69-2.89s-11.66-3.44-13.48-4.05A9.14,9.14,0,0,1,335,343a5.85,5.85,0,0,1,4.85-1.29c.81.22,4.64,1.32,9.13,2.36s9.84,2,13.56,2.62l-2.87-2.88c-7.15-1.23-16-3.26-18.42-4a10.56,10.56,0,0,1,2.43-4.57,6,6,0,0,1,4.82-1.52l1.38.3h0c2.54.51,7.87,1.47,13.18,2.21s10.35,1.08,12.18,1.23A11.44,11.44,0,0,1,373,342.77Zm8.56-10.19a6.52,6.52,0,0,1-4.93,2.59c-1.14-.09-7-.52-12.94-1.22s-12-1.88-13.88-2.24A9.38,9.38,0,0,1,351.9,327a6.17,6.17,0,0,1,4.68-1.83c1,.12,6.69.94,12.7,1.39s12.24.6,14.33.62A11,11,0,0,1,381.52,332.58Zm8-10.7a6.82,6.82,0,0,1-4.81,2.87c-1.09.05-7,0-13-.38s-12.05-1.05-14-1.32a9.89,9.89,0,0,1,1.85-4.8,5.84,5.84,0,0,1,4.54-2.17c.83.06,4.84.42,9.41.5s10.06.13,13.79,0l-.12-.08.16.08,3.81-.19a14.87,14.87,0,0,1-.35,2.52h0A8.91,8.91,0,0,1,389.51,321.88Zm7.22-11.2a6.68,6.68,0,0,1-4.61,3.18c-.83.06-4.15.28-8.16.44l0,0c-7.19.22-16.36-.13-18.81-.33a9.55,9.55,0,0,1,1.48-5,6,6,0,0,1,4.42-2.4h1.4l-1.51-1,1.54,1c2.57,0,8-.07,13.38-.39s10.37-.93,12.19-1.16A11.1,11.1,0,0,1,396.73,310.68ZM403.19,299a6.61,6.61,0,0,1-4.31,3.52c-1.16.15-7,.9-13,1.33s-12.14.48-14.05.48a8.87,8.87,0,0,1,1.2-5,6.16,6.16,0,0,1,4.2-2.74c1.05-.08,6.78-.35,12.71-1.08s12.2-1.79,14.2-2.19A10.82,10.82,0,0,1,403.19,299Zm6.42-15.24a8.45,8.45,0,0,1-.68,3.2,7,7,0,0,1-4.14,3.76c-.55.12-2.26.44-4.58.89s-5.3.88-8.28,1.29-5.92.76-8.43,1l-5.51.39a10,10,0,0,1,.86-5.05,5.84,5.84,0,0,1,4-3c.86-.11,4.81-.53,9.32-1.34s9.92-1.84,13.52-2.76l0,0c1.68-.42,3-.76,3.72-1a14.2,14.2,0,0,1,.14,2.55l1.07.44Zm4.21-9.19a6.62,6.62,0,0,1-3.9,4c-.81.2-4,1.08-7.93,2h0c-6.94,1.64-16.09,3-18.47,3.35a9.23,9.23,0,0,1,.46-5.15,6.2,6.2,0,0,1,3.87-3.23c.24-.06.71-.15,1.36-.27l-3.31-1.37a8.16,8.16,0,0,0-4,3.93c-.85,1.76-.9,4-.61,6.56a7.73,7.73,0,0,0-4.42,3.74,12.23,12.23,0,0,0-1.07,6.52,7.93,7.93,0,0,0-4.65,3.45,11.2,11.2,0,0,0-1.48,6.44l-.15,0h0a8.14,8.14,0,0,0-4.74,3.08,12.56,12.56,0,0,0-1.86,6.32,7.68,7.68,0,0,0-5.08,2.84,11.79,11.79,0,0,0-2.31,6.15,8,8,0,0,0-5.23,2.49,11.14,11.14,0,0,0-2.68,6l-.16,0,0,0a7.75,7.75,0,0,0-5.23,2.09,12.63,12.63,0,0,0-3.11,5.83,7.65,7.65,0,0,0-5.49,1.81,11.77,11.77,0,0,0-3.48,5.57,8.41,8.41,0,0,0-5.62,1.43,11.66,11.66,0,0,0-3.8,5.39l-.17,0,0,0a7.66,7.66,0,0,0-5.51,1.06,12.57,12.57,0,0,0-4.16,5.12,7.62,7.62,0,0,0-5.74.69,11.1,11.1,0,0,0-4.5,4.8,8.3,8.3,0,0,0-5.8.27A11.9,11.9,0,0,0,290,370l-.17-.06h0a7.66,7.66,0,0,0-5.64,0,12.26,12.26,0,0,0-5.08,4.2,7.68,7.68,0,0,0-5.76-.46A11.25,11.25,0,0,0,268,377.5a8.48,8.48,0,0,0-5.75-.87,12.12,12.12,0,0,0-5.57,3.51l-.13-.08h0A7.66,7.66,0,0,0,251,378.9a12.73,12.73,0,0,0-5.8,3.1,7.57,7.57,0,0,0-5.57-1.53,11,11,0,0,0-6,2.68,8.61,8.61,0,0,0-5.46-2,11.57,11.57,0,0,0-6.17,2.4l-.12-.1v0a7.8,7.8,0,0,0-5.18-2.23,12.86,12.86,0,0,0-6.3,2,7.76,7.76,0,0,0-5.18-2.62,12,12,0,0,0-6.42,1.51,8.11,8.11,0,0,0-5-3,11.56,11.56,0,0,0-6.52,1.13l-.07-.12v0a8.37,8.37,0,0,0-4.65-3.18,12.56,12.56,0,0,0-6.55.7,7.84,7.84,0,0,0-4.54-3.6,12.44,12.44,0,0,0-6.59.21,8,8,0,0,0-4.29-3.85,11.18,11.18,0,0,0-6.6-.2L154,370l-.5,1.2L154,370a8.08,8.08,0,0,0-3.92-4,12.31,12.31,0,0,0-6.58-.6,7.78,7.78,0,0,0-3.73-4.43,12.16,12.16,0,0,0-6.49-1.06,8.14,8.14,0,0,0-3.47-4.65,11.22,11.22,0,0,0-6.44-1.47l0-.16v0a7.94,7.94,0,0,0-3.07-4.71,12.24,12.24,0,0,0-6.32-1.88,7.5,7.5,0,0,0-2.83-5,11.68,11.68,0,0,0-6.15-2.34,8.35,8.35,0,0,0-2.47-5.25,11.42,11.42,0,0,0-6.07-2.66v-.19a7.57,7.57,0,0,0-2.08-5.24,12.55,12.55,0,0,0-5.82-3.07,7.63,7.63,0,0,0-1.81-5.5,11.28,11.28,0,0,0-5.59-3.5,8.29,8.29,0,0,0-1.4-5.62,11.69,11.69,0,0,0-5.41-3.79l0-.17h0a7.65,7.65,0,0,0-1-5.52,12.58,12.58,0,0,0-5.1-4.17,7.88,7.88,0,0,0-.7-5.74,11.14,11.14,0,0,0-4.82-4.49,8.3,8.3,0,0,0-.27-5.8,11.92,11.92,0,0,0-4.55-4.77l.06-.16L55.36,275l2.56-1.09a7.6,7.6,0,0,0,0-5.6,12.25,12.25,0,0,0-4.18-5.07,7.88,7.88,0,0,0,.43-5.77,10.85,10.85,0,0,0-3.83-5.33,8.46,8.46,0,0,0,.86-5.76,11.73,11.73,0,0,0-3.51-5.57l.08-.15h0A7.68,7.68,0,0,0,49,235.13a12.64,12.64,0,0,0-3.13-5.79,7.64,7.64,0,0,0,1.55-5.58,11.2,11.2,0,0,0-2.69-6,8.41,8.41,0,0,0,2-5.45,11.2,11.2,0,0,0-2.4-6.17l.12-.13h0a7.9,7.9,0,0,0,2.24-5.19,12.75,12.75,0,0,0-2-6.31,7.58,7.58,0,0,0,2.63-5.14,11.92,11.92,0,0,0-1.5-6.42,8.14,8.14,0,0,0,3-5,11.22,11.22,0,0,0-1.12-6.51l.13-.09-.64-.13.66.13A8.25,8.25,0,0,0,51,166.7a12.34,12.34,0,0,0-.7-6.54,7.65,7.65,0,0,0,3.6-4.56,12.25,12.25,0,0,0-.23-6.56,7.85,7.85,0,0,0,3.87-4.3,11.25,11.25,0,0,0,.22-6.58l.13-.08h0a8.19,8.19,0,0,0,4-3.93c.84-1.76.9-4,.61-6.57A7.84,7.84,0,0,0,67,123.83a12.2,12.2,0,0,0,1.06-6.49,8.15,8.15,0,0,0,4.65-3.46,11.15,11.15,0,0,0,1.47-6.43l.16,0a7.89,7.89,0,0,0,4.72-3.07A12.3,12.3,0,0,0,80.94,98,7.8,7.8,0,0,0,86,95.22,11.73,11.73,0,0,0,88.32,89a8.29,8.29,0,0,0,5.25-2.48,11.44,11.44,0,0,0,2.68-6l.15,0v0a7.8,7.8,0,0,0,5.26-2.1,12.65,12.65,0,0,0,3.08-5.82,7.58,7.58,0,0,0,5.49-1.83,11.1,11.1,0,0,0,3.49-5.58,8.31,8.31,0,0,0,5.63-1.4,11.69,11.69,0,0,0,3.8-5.39l.16,0h0a7.68,7.68,0,0,0,5.54-1A12.37,12.37,0,0,0,133,52.28a7.84,7.84,0,0,0,5.75-.69,11.4,11.4,0,0,0,4.5-4.82,8.38,8.38,0,0,0,5.79-.26A12,12,0,0,0,153.83,42L154,42h0a7.76,7.76,0,0,0,5.64,0,12.46,12.46,0,0,0,5.08-4.19,7.76,7.76,0,0,0,5.75.44,11.17,11.17,0,0,0,5.35-3.84,8.24,8.24,0,0,0,5.74.87,12.05,12.05,0,0,0,5.58-3.52l.14.09h0a7.53,7.53,0,0,0,5.51,1.17,12.44,12.44,0,0,0,5.81-3.1,7.62,7.62,0,0,0,5.56,1.52,10.85,10.85,0,0,0,6-2.67,8.39,8.39,0,0,0,5.44,2,11.49,11.49,0,0,0,6.19-2.4l.12.11v0a7.69,7.69,0,0,0,5.2,2.22,12.54,12.54,0,0,0,6.29-1.93,7.87,7.87,0,0,0,5.19,2.63A12.2,12.2,0,0,0,245,30a8,8,0,0,0,5,2.95,11.44,11.44,0,0,0,6.5-1.11l.1.13,0-.17,0,.17a8,8,0,0,0,4.65,3.19c1.88.48,4.1.09,6.54-.69A7.87,7.87,0,0,0,272.27,38a12.41,12.41,0,0,0,6.58-.22,8,8,0,0,0,4.31,3.85,11.19,11.19,0,0,0,6.58.2l.07.15.41-1-.41,1a8.19,8.19,0,0,0,3.95,4c1.74.84,4,.88,6.55.6a7.69,7.69,0,0,0,3.74,4.43,12.16,12.16,0,0,0,6.5,1.07A8.17,8.17,0,0,0,314,56.8a11.14,11.14,0,0,0,6.44,1.47l0,.16h0a8.16,8.16,0,0,0,3.07,4.74,12.72,12.72,0,0,0,6.31,1.88,7.68,7.68,0,0,0,2.85,5,11.78,11.78,0,0,0,6.14,2.33,8.32,8.32,0,0,0,2.49,5.23,11.14,11.14,0,0,0,6,2.68l0,.15,0,0a7.74,7.74,0,0,0,2.11,5.23,12.41,12.41,0,0,0,5.82,3.08,7.56,7.56,0,0,0,1.81,5.49,11.06,11.06,0,0,0,5.57,3.48,8.31,8.31,0,0,0,1.42,5.64,11.42,11.42,0,0,0,5.38,3.79v.17h0a7.66,7.66,0,0,0,1.06,5.55,12.55,12.55,0,0,0,5.1,4.14,7.78,7.78,0,0,0,.7,5.74,11.09,11.09,0,0,0,4.81,4.51,8.17,8.17,0,0,0,.28,5.79c.75,1.8,2.38,3.32,4.55,4.78l-.09.15.26-.1-.26.12a7.76,7.76,0,0,0,0,5.62,12.25,12.25,0,0,0,4.17,5.07,8,8,0,0,0-.45,5.77,11.3,11.3,0,0,0,3.85,5.35,8.51,8.51,0,0,0-.89,5.72,12.14,12.14,0,0,0,3.55,5.6l-.1.13a7.59,7.59,0,0,0-1.16,5.51,12.29,12.29,0,0,0,3.09,5.8,7.93,7.93,0,0,0-1.55,5.57,11.19,11.19,0,0,0,2.71,6,8.26,8.26,0,0,0-2,5.47,11.18,11.18,0,0,0,2.4,6.17l-.11.12h0a7.83,7.83,0,0,0-2.24,5.18,12.62,12.62,0,0,0,2,6.32,7.64,7.64,0,0,0-2.62,5.15,11.69,11.69,0,0,0,1.49,6.41,8.09,8.09,0,0,0-2.94,5,11.14,11.14,0,0,0,1.09,6.5l-.12.09h0a8.18,8.18,0,0,0-3.18,4.65,12.2,12.2,0,0,0,.69,6.56,7.6,7.6,0,0,0-3.6,4.54,12.17,12.17,0,0,0,.21,6.57,8.19,8.19,0,0,0-3.87,4.3,11.56,11.56,0,0,0-.19,6.59l-.16.07,3.34,1.37c2.55-.48,7.87-1.63,13.07-3s10-3,11.71-3.52A11.19,11.19,0,0,1,413.82,274.57Zm4-12.73a6.65,6.65,0,0,1-3.53,4.29c-1.11.37-6.74,2.27-12.48,3.84s-11.81,2.87-13.66,3.23a9.06,9.06,0,0,1,.19-5.13,6.13,6.13,0,0,1,3.57-3.51c1-.27,6.61-1.67,12.29-3.55s11.59-4.17,13.48-4.94A10.75,10.75,0,0,1,417.86,261.84Zm3.25-13v0a6.83,6.83,0,0,1-3.32,4.49c-.53.23-2.12.9-4.3,1.8s-5,1.88-7.86,2.88-5.69,1.9-8.07,2.63-4.39,1.21-5.36,1.49a10.16,10.16,0,0,1-.13-5.14,6,6,0,0,1,3.35-3.75c.84-.25,4.62-1.45,8.87-3.14s9.4-3.76,12.74-5.34l-3.42-.69,3.44.69,3.47-1.69a15.29,15.29,0,0,1,.62,2.51h0A8.53,8.53,0,0,1,421.11,248.88Zm-.66-8.39c-.74.38-3.74,1.87-7.39,3.53h0c-6.49,3-15.18,6.14-17.47,6.91a9.23,9.23,0,0,1-.56-5.12,6.18,6.18,0,0,1,3.18-3.95l1.28-.52-.57-.12.59.12c2.41-1,7.39-3.15,12.22-5.51s9.2-4.86,10.79-5.75a11.17,11.17,0,0,1,1,5.7A6.7,6.7,0,0,1,420.45,240.49Zm1.85-13.05c-1,.55-6.14,3.52-11.43,6.21s-11,5.11-12.8,5.85a9.06,9.06,0,0,1-.8-5.09,6.08,6.08,0,0,1,2.8-4.13c1-.49,6.12-2.94,11.34-5.9S422,218,423.68,216.91a11.35,11.35,0,0,1,1.28,5.61A6.6,6.6,0,0,1,422.3,227.44Z"/><path class="cls-1" d="M318.39,261.23l-6-3.56L302,251.49l-6-3.55c-2.87-1.71-5.23-.38-5.28,2.95l-.09,7c0,3.33-.12,8.77-.15,12.09l-.1,7c0,3.33,1.45,3.79,3.3,1l5.5-8.19c.16-.25.38-.49.57-.73,2.94,7.47.77,16.72-4.43,22.52-7.51,8.33-19.23,12.57-29.51,16.24s-21.25,6.38-31.13,11.3c-.09-.28-.15-.54-.24-.83-7-21.27,6.25-35.46,6.25-35.46-16.06-15.26-11.56-75.14-10.46-87.33a20.83,20.83,0,1,0-17.61,0c1.1,12.19,5.6,72.07-10.47,87.33,0,0,13.27,14.19,6.26,35.46-.05.16-.08.3-.13.45-9.69-4.68-20.26-7.3-30.36-10.92-10.29-3.67-22-7.91-29.5-16.24-5.21-5.8-7.38-15-4.44-22.52a7.72,7.72,0,0,1,.58.73l5.49,8.19c1.85,2.77,3.34,2.31,3.3-1l-.1-7c0-3.32-.11-8.76-.15-12.09l-.08-7c-.05-3.33-2.42-4.66-5.28-2.95l-6,3.55-10.4,6.18-6,3.56c-2.86,1.7-2.48,3.13.84,3.2l8.92.16c.2,0,.42,0,.63.06a65.52,65.52,0,0,0-2.74,6.83c-3.95,14.3,2.76,27.73,13.63,36.9s24.37,15,37.21,20.79C192.5,333,209.37,343,217.77,355c.57,3.76,1.79,6.92,4.1,8.16a.15.15,0,0,1,0-.07.25.25,0,0,0,0,.07c2.32-1.24,3.53-4.4,4.1-8.16,8.41-12,25.28-21.92,33.88-25.78,12.83-5.77,26.35-11.63,37.2-20.79s17.59-22.6,13.64-36.9a68.86,68.86,0,0,0-2.75-6.83c.22,0,.43-.06.64-.06l8.91-.16C320.87,264.36,321.25,262.93,318.39,261.23Zm-96.93-94.92a10.27,10.27,0,1,1-10.28,10.27A10.27,10.27,0,0,1,221.46,166.31Z"/><polygon class="cls-1" points="17.07 201.9 0 231.47 127.07 231.47 127.07 171.44 0 171.44 17.07 201.9"/><polygon class="cls-1" points="59.73 264.3 127.15 234.25 59.73 234.25 59.73 264.3"/><polygon class="cls-1" points="316.74 171.44 316.74 231.47 443.8 231.47 426.73 201.9 443.8 171.44 316.74 171.44"/><polygon class="cls-1" points="384.07 264.3 384.07 234.25 316.66 234.25 384.07 264.3"/><path class="cls-2" d="M352.26,212.7h-4.39v-12l.05-2,.06-2.17a20.05,20.05,0,0,1-1.51,1.43l-2.39,1.92L342,197.26l6.69-5.33h3.61Z"/><path class="cls-2" d="M373,200.8c0,4.09-.86,7.15-2.59,9.16s-4.33,3-7.83,3a14.15,14.15,0,0,1-2.8-.2v-3.52a10.7,10.7,0,0,0,2.5.29,8.57,8.57,0,0,0,3.62-.64,4.5,4.5,0,0,0,2.18-2,9,9,0,0,0,.87-3.81h-.17a4.92,4.92,0,0,1-1.91,1.87,5.85,5.85,0,0,1-2.7.55,5.42,5.42,0,0,1-4.27-1.74,6.94,6.94,0,0,1-1.57-4.84,7.24,7.24,0,0,1,1.9-5.28,6.88,6.88,0,0,1,5.17-1.94,7.39,7.39,0,0,1,4,1.08,6.94,6.94,0,0,1,2.65,3.13A11.83,11.83,0,0,1,373,200.8Zm-7.52-5.59a2.57,2.57,0,0,0-2.13.94,4.18,4.18,0,0,0-.77,2.7,3.72,3.72,0,0,0,.7,2.39,2.52,2.52,0,0,0,2.12.88,3.23,3.23,0,0,0,2.28-.88,2.63,2.63,0,0,0,1-2,4.59,4.59,0,0,0-.89-2.85A2.73,2.73,0,0,0,365.52,195.21Z"/><path class="cls-2" d="M390.23,200.8c0,4.09-.86,7.15-2.59,9.16s-4.33,3-7.82,3a14,14,0,0,1-2.8-.2v-3.52a10.7,10.7,0,0,0,2.5.29,8.63,8.63,0,0,0,3.62-.64,4.57,4.57,0,0,0,2.17-2,8.67,8.67,0,0,0,.87-3.81H386a4.79,4.79,0,0,1-1.91,1.87,5.83,5.83,0,0,1-2.69.55,5.46,5.46,0,0,1-4.28-1.74,7,7,0,0,1-1.56-4.84,7.19,7.19,0,0,1,1.89-5.28,6.88,6.88,0,0,1,5.17-1.94,7.43,7.43,0,0,1,4,1.08,6.92,6.92,0,0,1,2.64,3.13A11.83,11.83,0,0,1,390.23,200.8Zm-7.51-5.59a2.59,2.59,0,0,0-2.14.94,4.18,4.18,0,0,0-.76,2.7,3.77,3.77,0,0,0,.69,2.39,2.52,2.52,0,0,0,2.12.88,3.25,3.25,0,0,0,2.29-.88,2.65,2.65,0,0,0,.95-2,4.59,4.59,0,0,0-.89-2.85A2.73,2.73,0,0,0,382.72,195.21Z"/><path class="cls-2" d="M407.39,202.32c0,3.63-.59,6.31-1.78,8.06a6.18,6.18,0,0,1-5.49,2.61,6.11,6.11,0,0,1-5.42-2.7c-1.22-1.8-1.83-4.45-1.83-8s.59-6.37,1.78-8.11a6.9,6.9,0,0,1,10.91.13Q407.39,197.06,407.39,202.32Zm-10.16,0a15.9,15.9,0,0,0,.67,5.48,2.27,2.27,0,0,0,2.22,1.65,2.3,2.3,0,0,0,2.21-1.67,22.11,22.11,0,0,0,0-11,2.3,2.3,0,0,0-2.21-1.66,2.28,2.28,0,0,0-2.21,1.66A16,16,0,0,0,397.23,202.32Z"/><path class="cls-2" d="M44.62,206.94a5.34,5.34,0,0,1-2,4.43A8.78,8.78,0,0,1,37,213a13.11,13.11,0,0,1-5.88-1.26v-4.08A24,24,0,0,0,34.64,209a10.5,10.5,0,0,0,2.67.39,3.9,3.9,0,0,0,2.23-.56,1.91,1.91,0,0,0,.77-1.65,1.83,1.83,0,0,0-.34-1.08,3.59,3.59,0,0,0-1-.92,24.88,24.88,0,0,0-2.7-1.4A13,13,0,0,1,33.41,202a6.68,6.68,0,0,1-1.52-1.91,5.64,5.64,0,0,1-.56-2.56,5.36,5.36,0,0,1,1.87-4.34,7.76,7.76,0,0,1,5.16-1.58,12,12,0,0,1,3.09.39,21,21,0,0,1,3.08,1.07l-1.43,3.43a18.92,18.92,0,0,0-2.74-1,9,9,0,0,0-2.14-.27,2.83,2.83,0,0,0-1.92.58,2,2,0,0,0-.67,1.52,1.82,1.82,0,0,0,.28,1,2.87,2.87,0,0,0,.86.84,25.53,25.53,0,0,0,2.79,1.46,11,11,0,0,1,4,2.79A5.36,5.36,0,0,1,44.62,206.94Z"/><path class="cls-2" d="M49,212.7V191.93h4.4V212.7Z"/><path class="cls-2" d="M77.63,212.7H72L63,197h-.13q.27,4.17.27,5.94v9.77H59.2V191.93h5.55l9,15.56h.09q-.21-4.05-.21-5.73v-9.83h4Z"/><path class="cls-2" d="M92.26,195.3a4.48,4.48,0,0,0-3.85,1.87,8.66,8.66,0,0,0-1.37,5.2q0,7,5.22,7a16.74,16.74,0,0,0,5.3-1.09v3.68A14.75,14.75,0,0,1,91.85,213a8.71,8.71,0,0,1-6.93-2.75c-1.6-1.83-2.41-4.47-2.41-7.89a12.87,12.87,0,0,1,1.18-5.68,8.62,8.62,0,0,1,3.39-3.74,10.09,10.09,0,0,1,5.18-1.3,14,14,0,0,1,6.08,1.46l-1.42,3.59a24.78,24.78,0,0,0-2.35-1A7,7,0,0,0,92.26,195.3Z"/><path class="cls-2" d="M114.53,212.7h-12V191.93h12v3.61H107v4.57h7v3.6h-7v5.35h7.56Z"/><path class="cls-1" d="M157.19,122.21h-7.05V107.8H136.93v14.41h-7.08V88.83h7.08v13.09h13.21V88.83h7.05Z"/><path class="cls-1" d="M165.62,122.21V88.83h7.07v33.38Z"/><path class="cls-1" d="M204.15,99.24c0,3.59-1.13,6.34-3.37,8.25s-5.43,2.85-9.58,2.85h-3v11.87h-7.08V88.83h10.66q6.08,0,9.24,2.62T204.15,99.24Zm-16,5.3h2.33a7.75,7.75,0,0,0,4.88-1.29A4.49,4.49,0,0,0,197,99.49a4.61,4.61,0,0,0-1.35-3.66,6.32,6.32,0,0,0-4.26-1.19h-3.22Z"/><path class="cls-1" d="M230.14,112.94a8.63,8.63,0,0,1-3.25,7.12q-3.24,2.61-9,2.61a21.28,21.28,0,0,1-9.45-2v-6.57a41.09,41.09,0,0,0,5.72,2.13,16.89,16.89,0,0,0,4.28.61,6.11,6.11,0,0,0,3.57-.89,3,3,0,0,0,1.24-2.65,2.86,2.86,0,0,0-.54-1.74,6.33,6.33,0,0,0-1.61-1.48,43.53,43.53,0,0,0-4.32-2.26,20,20,0,0,1-4.59-2.77A9.89,9.89,0,0,1,209.7,102a8.73,8.73,0,0,1-.92-4.1,8.63,8.63,0,0,1,3-7q3-2.53,8.3-2.53a19.1,19.1,0,0,1,5,.62A32.78,32.78,0,0,1,230,90.7l-2.28,5.51a33.75,33.75,0,0,0-4.41-1.53,14.24,14.24,0,0,0-3.44-.44,4.52,4.52,0,0,0-3.08.94,3.11,3.11,0,0,0-1.08,2.44,3,3,0,0,0,.44,1.64,4.94,4.94,0,0,0,1.38,1.35,45,45,0,0,0,4.49,2.33c3.12,1.49,5.25,3,6.41,4.49A8.72,8.72,0,0,1,230.14,112.94Z"/><path class="cls-1" d="M249.07,122.21H242V94.73h-9.06v-5.9h25.2v5.9h-9.06Z"/><path class="cls-1" d="M282.48,122.21H263.27V88.83h19.21v5.81H270.34V102h11.3v5.8h-11.3v8.61h12.14Z"/><path class="cls-1" d="M296.52,109.4v12.81h-7.08V88.83h9.73c4.54,0,7.89.84,10.07,2.48s3.26,4.16,3.26,7.52a8.83,8.83,0,0,1-1.62,5.24,10.74,10.74,0,0,1-4.59,3.6q7.54,11.25,9.81,14.54h-7.84l-8-12.81Zm0-5.76h2.29a8.7,8.7,0,0,0,4.95-1.11,4,4,0,0,0,1.6-3.52,3.66,3.66,0,0,0-1.63-3.37,10,10,0,0,0-5.07-1h-2.14Z"/><path class="cls-1" d="M315,79.37H131a2.6,2.6,0,1,1,0-5.2H315a2.6,2.6,0,1,1,0,5.2Z"/><path class="cls-1" d="M315,135.24H131a2.61,2.61,0,0,1,0-5.21H315a2.61,2.61,0,0,1,0,5.21Z"/></g></g></svg>