<svg xmlns="http://www.w3.org/2000/svg" viewBox="0 0 6.69 12"><defs><style>.cls-1{fill:#3c3c3c;}</style></defs><g id="Capa_2" data-name="Capa 2"><g id="Capa_1-2" data-name="Capa 1"><path id="Facebook" class="cls-1" d="M6.42,0H4.65A2.74,2.74,0,0,0,1.77,2.58a3,3,0,0,0,0,.42V4H.24A.26.26,0,0,0,0,4.25V6.42a.25.25,0,0,0,.24.25H1.78v5.09A.24.24,0,0,0,2,12H4.2a.24.24,0,0,0,.24-.24V6.67h2a.25.25,0,0,0,.25-.25V4.27A.28.28,0,0,0,6.42,4h-2V3c0-.53.14-.8.89-.8H6.42A.24.24,0,0,0,6.67,2V.25A.25.25,0,0,0,6.42,0Z"/></g></g></svg>