<svg xmlns="http://www.w3.org/2000/svg" viewBox="0 0 12 12"><defs><style>.cls-1{fill:#3c3c3c;}</style></defs><g id="Capa_2" data-name="Capa 2"><g id="Capa_1-2" data-name="Capa 1"><path class="cls-1" d="M12,3.53a4.3,4.3,0,0,0-.28-1.46A2.89,2.89,0,0,0,11,1,2.88,2.88,0,0,0,9.93.32,4.24,4.24,0,0,0,8.48,0h-5A4.34,4.34,0,0,0,2.07.31,3,3,0,0,0,1,1,2.88,2.88,0,0,0,.32,2.07,4.3,4.3,0,0,0,0,3.53V8.47A4.34,4.34,0,0,0,.31,9.93,3,3,0,0,0,1,11a2.89,2.89,0,0,0,1.06.7,4.64,4.64,0,0,0,1.47.3H8.47a4.54,4.54,0,0,0,1.46-.27A3.09,3.09,0,0,0,11.68,10,4.58,4.58,0,0,0,12,8.47V3.53Zm-1.08,4.9a3.52,3.52,0,0,1-.21,1.11,2,2,0,0,1-1.14,1.14,3.52,3.52,0,0,1-1.11.21H3.61a3.52,3.52,0,0,1-1.11-.21,1.88,1.88,0,0,1-.69-.45,1.88,1.88,0,0,1-.45-.69,3.52,3.52,0,0,1-.21-1.11V3.58a3.52,3.52,0,0,1,.21-1.11,1.88,1.88,0,0,1,.45-.69,1.88,1.88,0,0,1,.69-.45,3.25,3.25,0,0,1,1.11-.2H8.46a3.25,3.25,0,0,1,1.11.2,1.88,1.88,0,0,1,.69.45,1.88,1.88,0,0,1,.45.69,3.52,3.52,0,0,1,.21,1.11V6c0,1.61,0,1.78,0,2.42Z"/><path class="cls-1" d="M6,2.92A3.08,3.08,0,1,0,9.08,6h0A3.08,3.08,0,0,0,6,2.92ZM6,8A2,2,0,1,1,8,6,2,2,0,0,1,6,8Z"/><path class="cls-1" d="M9.93,2.8a.72.72,0,1,1-.72-.72A.72.72,0,0,1,9.93,2.8Z"/></g></g></svg>