<svg xmlns="http://www.w3.org/2000/svg" viewBox="0 0 23.95 24"><defs><style>.cls-1{fill:#3c3c3c;}</style></defs><g id="Capa_2" data-name="Capa 2"><g id="Capa_1-2" data-name="Capa 1"><path class="cls-1" d="M23.32,17.61,20,14.26a2.24,2.24,0,0,0-3.17,0,2.28,2.28,0,0,0-.54.86,2.27,2.27,0,0,1-2.63,1.44c-2.39-.6-5.62-3.71-6.22-6.22A2.17,2.17,0,0,1,8.85,7.69a2.23,2.23,0,0,0,1.36-2.86A2.2,2.2,0,0,0,9.69,4L6.34.63a2.39,2.39,0,0,0-3.23,0L.83,2.9c-2.27,2.39.24,8.73,5.86,14.35s12,8.26,14.36,5.87l2.27-2.28A2.39,2.39,0,0,0,23.32,17.61Z"/></g></g></svg>