<svg xmlns="http://www.w3.org/2000/svg" viewBox="0 0 23.22 26.7"><defs><style>.cls-1{fill:#3c3c3c;}</style></defs><g id="Capa_2" data-name="Capa 2"><g id="Capa_1-2" data-name="Capa 1"><path id="GPS-2" class="cls-1" d="M11.58,0A8.44,8.44,0,0,0,3.14,8.44h0a8.36,8.36,0,0,0,1.27,4.43L11,23.67a.68.68,0,0,0,.48.32.69.69,0,0,0,.71-.34l6.62-10.9A8.29,8.29,0,0,0,20,8.44,8.46,8.46,0,0,0,11.58,0Zm0,12.66A4.22,4.22,0,1,1,15.8,8.44a4.22,4.22,0,0,1-4.22,4.22Z"/><path class="cls-1" d="M16.32,19.08v.85c3.63.54,5.92,1.46,5.92,2.79,0,1.84-4.66,3.1-10.63,3.1s-10.5-1.36-10.5-3.2c0-1.31,2.18-2.19,5.72-2.74,0-.2-.1-.57-.11-.77-4,.63-6.72,2-6.72,3.59,0,2.19,5.2,4,11.61,4s11.61-1.77,11.61-4C23.19,21.09,20.36,19.7,16.32,19.08Z"/></g></g></svg>