<svg xmlns="http://www.w3.org/2000/svg" viewBox="0 0 15.71 11.01"><defs><style>.cls-1{fill:#3c3c3c;}</style></defs><g id="Capa_2" data-name="Capa 2"><g id="Capa_1-2" data-name="Capa 1"><path id="Youtube" class="cls-1" d="M15.39,1.72A2,2,0,0,0,14,.34,46.71,46.71,0,0,0,7.86,0,50.58,50.58,0,0,0,1.71.32,2,2,0,0,0,.32,1.72,20.9,20.9,0,0,0,0,5.5,20.75,20.75,0,0,0,.32,9.28a2,2,0,0,0,1.39,1.38A43.64,43.64,0,0,0,7.86,11,46.69,46.69,0,0,0,14,10.68a2,2,0,0,0,1.39-1.39,20.75,20.75,0,0,0,.32-3.78A20.07,20.07,0,0,0,15.39,1.72ZM6.11,7.86V3.14L10.2,5.5Z"/></g></g></svg>