<svg xmlns="http://www.w3.org/2000/svg" viewBox="0 0 1033.14 364.93"><defs><style>.cls-1{fill:#3c3c3c;}</style></defs><g id="Capa_2" data-name="Capa 2"><g id="Layer_1" data-name="Layer 1"><path class="cls-1" d="M0,217.78,29.87,19.34,54.09,0,138.3.14l18.06,19.41-6,40,3.07,15-52.92-.09,7.91-15,2.36-15.62-4-4.7-32.62,0-5.36,4.68L46.37,192.85l4,4.69,32.62.06,5.37-4.68,6.44-42.81-12,0-3.3-40,68.57.12-7.68,15.61L126.48,218l-23.93,19.65-84.21-.14Z"/><path class="cls-1" d="M320.11,19.82,290.23,218.26,266.3,237.91l-84.21-.14-18.34-19.72L193.63,19.61,217.85.27l84.21.14Zm-50.7,20.55-32,0-5.65,4.36L209.36,193.75l4.34,4.38,32,.05,5.65-4.37L273.74,44.75Z"/><path class="cls-1" d="M319.21,238l7.59-15L358,15.82,355,.5l110.5.18,18.39,19.41L467.58,128.22l-24.31,20,7.16,74.09,4.25,15.95-52.25-.09,5.87-14.68-7.2-71.59-2.76-3.76-13.65,0-5.7,4.68L368.4,223.08l3.07,15Zm104-129.23,5.64-4.37L437.82,45l-4.33-4.38-32.62,0L395.22,45l-8.94,59.38,4.33,4.38Z"/><path class="cls-1" d="M535.23,238.36,483,238.27l7.58-15L521.74,16.09l-3-15.32L571,.86l-7.63,15.3L532.16,223.35Z"/><path class="cls-1" d="M691,238.62l-126.48-.21,7.58-15L603.28,16.23l-3-15.32L652.52,1l-7.3,15.31L618.41,194.42l4.33,4.39,64.57.1,18-4.34Z"/><path class="cls-1" d="M846.09,238.88l-126.48-.21,7.58-15L758.38,16.48l-3-15.32,52.26.09-7.3,15.3L773.51,194.68l4.33,4.39,64.57.1,18-4.34Z"/><path class="cls-1" d="M1033.14,239.19l-52.93-.09,5.08-9.37-3.86-36.27-4.29-4.69-41.61-.07-5.69,4.68-14.78,36.23,2.25,9.38-52.93-.08L875.1,223,958.31,15.25,955.72,1.5l57.59.09-6.73,13.74,20.64,207.91Zm-82.93-90.48,24.63,0,4.51-3.43-4.88-76-27.74,75.91Z"/><path class="cls-1" d="M402,358.76l8-53.37,7.5-5.2,26.52,0,5.81,5.22-1.61,10.76,1.07,4-16.67,0,2.39-4,.64-4.21-1.28-1.26H424L422.24,312l-6,40.09,1.38,1.26H428l1.66-1.26.62-4.11-1.18-4,16.66,0-2.28,4-1.63,10.84-7.4,5.29-26.52,0Z"/><path class="cls-1" d="M407.8,364.72a.6.6,0,0,1-.34-.16l-5.92-5.3a.7.7,0,0,1-.21-.6l8-53.37a.7.7,0,0,1,.28-.45l7.5-5.2a.64.64,0,0,1,.38-.12l26.52,0a.61.61,0,0,1,.44.17l5.82,5.22a.63.63,0,0,1,.21.59l-1.59,10.62,1,3.9a.7.7,0,0,1-.11.58.67.67,0,0,1-.53.26l-16.67,0a.65.65,0,0,1-.58-.33.69.69,0,0,1,0-.67l2.32-3.92.57-3.74-.85-.83h-9.89l-1.35,1-5.94,39.46.93.85h9.89l1.27-1,.55-3.71-1.13-3.89a.68.68,0,0,1,.64-.86l16.67,0a.7.7,0,0,1,.57.33.67.67,0,0,1,0,.67l-2.22,3.92-1.61,10.72a.68.68,0,0,1-.27.44l-7.4,5.29a.68.68,0,0,1-.39.13l-26.52,0Zm-5.1-6.22,5.46,4.9,26,0,7-5,1.59-10.56a.63.63,0,0,1,.08-.23l1.72-3H430l.93,3.18a.88.88,0,0,1,0,.28l-.62,4.12a.67.67,0,0,1-.26.43l-1.66,1.26a.63.63,0,0,1-.4.14H417.59a.64.64,0,0,1-.45-.18l-1.38-1.26a.68.68,0,0,1-.21-.59l6-40.09a.68.68,0,0,1,.27-.44l1.76-1.26A.69.69,0,0,1,424,310h10.38a.58.58,0,0,1,.46.19l1.28,1.26a.68.68,0,0,1,.2.57l-.64,4.21a.75.75,0,0,1-.08.24l-1.8,3,14.63,0-.85-3.2a.62.62,0,0,1,0-.27l1.56-10.4-5.36-4.81-26,0-7.09,4.93Z"/><path class="cls-1" d="M500.76,364.15l-39.83,0,2.28-4,8.38-55.72-1-4.12,16.45,0-2.19,4.11-7.2,47.91,1.39,1.18,20.33,0L505,352.3Z"/><path class="cls-1" d="M460.83,364.77a.67.67,0,0,1-.48-.32.67.67,0,0,1,0-.66l2.22-3.93,8.34-55.47-1-4a.65.65,0,0,1,.12-.57.67.67,0,0,1,.53-.26l16.45,0a.65.65,0,0,1,.57.32.67.67,0,0,1,0,.66l-2.14,4L478.31,352l.92.78,20.1,0,5.49-1.16a.67.67,0,0,1,.64.22.68.68,0,0,1,.12.66l-4.19,11.85a.67.67,0,0,1-.63.44l-39.83,0Zm10.56-63.86.85,3.28a.82.82,0,0,1,0,.27l-8.38,55.72a.63.63,0,0,1-.08.23l-1.72,3,38.22,0,3.64-10.29-4.47.93H479a.6.6,0,0,1-.43-.16l-1.39-1.18a.62.62,0,0,1-.23-.6l7.2-47.91a.74.74,0,0,1,.07-.21l1.67-3.14Z"/><path class="cls-1" d="M569.69,304.46l-8.19,54.46-7.5,5.29-26.62,0-5.71-5.3,8.19-54.46-1.06-4.12h16.46l-2.3,4.12-7.2,47.91,1.39,1.17h10.28l1.74-1.17,7.21-47.91-1.06-4.12,16.67,0Z"/><path class="cls-1" d="M527.28,364.84a.67.67,0,0,1-.36-.17l-5.7-5.3a.68.68,0,0,1-.21-.59l8.17-54.33-1-4a.65.65,0,0,1,.12-.57.64.64,0,0,1,.52-.26l16.46,0a.63.63,0,0,1,.57.33.65.65,0,0,1,0,.66l-2.24,4-7.13,47.42.93.78h9.82l1.34-.9,7.14-47.48-1-4a.71.71,0,0,1,.11-.58.69.69,0,0,1,.53-.25H572a.67.67,0,0,1,.58,1l-2.24,4L562.16,359a.61.61,0,0,1-.27.44l-7.51,5.29a.67.67,0,0,1-.39.12l-26.62,0Zm-4.9-6.21,5.26,4.88,26.14,0,7.11-5L569,304.36a.63.63,0,0,1,.08-.23l1.75-3.12-14.68,0,.84,3.29a.74.74,0,0,1,0,.26l-7.21,47.91a.65.65,0,0,1-.29.45l-1.74,1.18a.7.7,0,0,1-.37.11H537.15a.65.65,0,0,1-.42-.16l-1.4-1.17a.67.67,0,0,1-.23-.61l7.2-47.91a.83.83,0,0,1,.08-.22l1.75-3.13-14.47,0,.85,3.29a.82.82,0,0,1,0,.27Z"/><path class="cls-1" d="M590.43,300.36l34.79,0,5.93,5.22L628,326.45l-7.61,5.29,6,5.39L623.13,359l-7.51,5.29-34.8,0,2.3-4.11,8.38-55.73Zm11.14,24.89,1.39,1.18h10.17l1.75-1.18,2-13.11-1.38-1.26H605.3l-1.76,1.26Zm10,11.86H601.36l-1.76,1.26-2.09,13.87,1.38,1.26h10.17l1.76-1.26,2.09-13.86Z"/><path class="cls-1" d="M580.72,364.89a.65.65,0,0,1-.47-.32.67.67,0,0,1,0-.66l2.24-4,8.34-55.47-1-3.9a.67.67,0,0,1,.12-.58.68.68,0,0,1,.53-.26l34.8,0a.67.67,0,0,1,.43.16l5.93,5.22a.68.68,0,0,1,.22.6l-3.13,20.84a.65.65,0,0,1-.28.45l-6.92,4.81,5.38,4.82a.7.7,0,0,1,.21.6l-3.29,21.85a.61.61,0,0,1-.27.44L616,364.81a.64.64,0,0,1-.38.12l-34.8,0ZM591.3,301l.84,3.2a.82.82,0,0,1,0,.27l-8.38,55.73a1,1,0,0,1-.08.22L582,363.57l33.45,0,7.1-5,3.19-21.22L620,332.24a.7.7,0,0,1-.22-.54.67.67,0,0,1,.29-.5l7.37-5.13,3-20.2L625,301.06Zm7.5,53.13a.64.64,0,0,1-.35-.17l-1.39-1.26a.68.68,0,0,1-.21-.59l2.09-13.87a.65.65,0,0,1,.27-.44l1.76-1.26a.67.67,0,0,1,.39-.12h10.17a.7.7,0,0,1,.45.17l1.38,1.27a.67.67,0,0,1,.21.59l-2.09,13.86a.61.61,0,0,1-.27.44L609.45,354a.61.61,0,0,1-.39.13H598.8Zm-.58-2.17.93.84,9.7,0,1.36-1,2-13.24-.93-.85h-9.7l-1.36,1Zm4.65-24.89a.63.63,0,0,1-.33-.15l-1.4-1.18a.67.67,0,0,1-.23-.61l2-13.11a.66.66,0,0,1,.28-.44l1.76-1.26a.59.59,0,0,1,.38-.12h10.17a.65.65,0,0,1,.45.17l1.38,1.26a.63.63,0,0,1,.21.59l-2,13.11a.67.67,0,0,1-.29.46L613.5,327a.63.63,0,0,1-.37.12H602.87Zm-.59-2.11.93.78h9.72l1.34-.89,1.87-12.48-.93-.84h-9.7l-1.35,1Z"/></g></g></svg>